<svg width="28" height="29" viewBox="0 0 28 29" fill="none" xmlns="http://www.w3.org/2000/svg">
<path d="M14.5827 17.4167H13.416C13.1066 17.4167 12.8099 17.2938 12.5911 17.075C12.3723 16.8562 12.2493 16.5595 12.2493 16.25C12.2493 15.9406 12.3723 15.6439 12.5911 15.4251C12.8099 15.2063 13.1066 15.0834 13.416 15.0834H14.5827C14.8921 15.0834 15.1888 15.2063 15.4076 15.4251C15.6264 15.6439 15.7493 15.9406 15.7493 16.25C15.7493 16.5595 15.6264 16.8562 15.4076 17.075C15.1888 17.2938 14.8921 17.4167 14.5827 17.4167ZM14.5827 22.0834H13.416C13.1066 22.0834 12.8099 21.9605 12.5911 21.7417C12.3723 21.5229 12.2493 21.2261 12.2493 20.9167C12.2493 20.6073 12.3723 20.3105 12.5911 20.0917C12.8099 19.873 13.1066 19.75 13.416 19.75H14.5827C14.8921 19.75 15.1888 19.873 15.4076 20.0917C15.6264 20.3105 15.7493 20.6073 15.7493 20.9167C15.7493 21.2261 15.6264 21.5229 15.4076 21.7417C15.1888 21.9605 14.8921 22.0834 14.5827 22.0834ZM8.74935 17.4167H7.58268C7.27326 17.4167 6.97652 17.2938 6.75772 17.075C6.53893 16.8562 6.41602 16.5595 6.41602 16.25C6.41602 15.9406 6.53893 15.6439 6.75772 15.4251C6.97652 15.2063 7.27326 15.0834 7.58268 15.0834H8.74935C9.05877 15.0834 9.35551 15.2063 9.57431 15.4251C9.7931 15.6439 9.91602 15.9406 9.91602 16.25C9.91602 16.5595 9.7931 16.8562 9.57431 17.075C9.35551 17.2938 9.05877 17.4167 8.74935 17.4167ZM8.74935 22.0834H7.58268C7.27326 22.0834 6.97652 21.9605 6.75772 21.7417C6.53893 21.5229 6.41602 21.2261 6.41602 20.9167C6.41602 20.6073 6.53893 20.3105 6.75772 20.0917C6.97652 19.873 7.27326 19.75 7.58268 19.75H8.74935C9.05877 19.75 9.35551 19.873 9.57431 20.0917C9.7931 20.3105 9.91602 20.6073 9.91602 20.9167C9.91602 21.2261 9.7931 21.5229 9.57431 21.7417C9.35551 21.9605 9.05877 22.0834 8.74935 22.0834ZM20.416 17.4167H19.2493C18.9399 17.4167 18.6432 17.2938 18.4244 17.075C18.2056 16.8562 18.0827 16.5595 18.0827 16.25C18.0827 15.9406 18.2056 15.6439 18.4244 15.4251C18.6432 15.2063 18.9399 15.0834 19.2493 15.0834H20.416C20.7254 15.0834 21.0222 15.2063 21.241 15.4251C21.4598 15.6439 21.5827 15.9406 21.5827 16.25C21.5827 16.5595 21.4598 16.8562 21.241 17.075C21.0222 17.2938 20.7254 17.4167 20.416 17.4167ZM20.416 22.0834H19.2493C18.9399 22.0834 18.6432 21.9605 18.4244 21.7417C18.2056 21.5229 18.0827 21.2261 18.0827 20.9167C18.0827 20.6073 18.2056 20.3105 18.4244 20.0917C18.6432 19.873 18.9399 19.75 19.2493 19.75H20.416C20.7254 19.75 21.0222 19.873 21.241 20.0917C21.4598 20.3105 21.5827 20.6073 21.5827 20.9167C21.5827 21.2261 21.4598 21.5229 21.241 21.7417C21.0222 21.9605 20.7254 22.0834 20.416 22.0834Z" fill="#0EB0F1" style="fill:#0EB0F1;fill:color(display-p3 0.0549 0.6902 0.9451);fill-opacity:1;"/>
<path d="M15.7507 8.66669H15.1673V8.08335C15.1673 7.77393 15.0444 7.47719 14.8256 7.2584C14.6068 7.0396 14.3101 6.91669 14.0007 6.91669C13.6912 6.91669 13.3945 7.0396 13.1757 7.2584C12.9569 7.47719 12.834 7.77393 12.834 8.08335V8.66669H12.2507C11.9412 8.66669 11.6445 8.7896 11.4257 9.0084C11.2069 9.22719 11.084 9.52393 11.084 9.83335C11.084 10.1428 11.2069 10.4395 11.4257 10.6583C11.6445 10.8771 11.9412 11 12.2507 11H12.834V11.5834C12.834 11.8928 12.9569 12.1895 13.1757 12.4083C13.3945 12.6271 13.6912 12.75 14.0007 12.75C14.3101 12.75 14.6068 12.6271 14.8256 12.4083C15.0444 12.1895 15.1673 11.8928 15.1673 11.5834V11H15.7507C16.0601 11 16.3568 10.8771 16.5756 10.6583C16.7944 10.4395 16.9173 10.1428 16.9173 9.83335C16.9173 9.52393 16.7944 9.22719 16.5756 9.0084C16.3568 8.7896 16.0601 8.66669 15.7507 8.66669Z" fill="#0EB0F1" style="fill:#0EB0F1;fill:color(display-p3 0.0549 0.6902 0.9451);fill-opacity:1;"/>
<path d="M25.0833 8.08333H21.5833V3.41667C21.5833 3.10725 21.4604 2.8105 21.2416 2.59171C21.0228 2.37292 20.7261 2.25 20.4167 2.25H7.58333C7.27391 2.25 6.97717 2.37292 6.75838 2.59171C6.53958 2.8105 6.41667 3.10725 6.41667 3.41667V8.08333H2.91667C2.60725 8.08333 2.3105 8.20625 2.09171 8.42504C1.87292 8.64383 1.75 8.94058 1.75 9.25V25.5833C1.75 25.8928 1.87292 26.1895 2.09171 26.4083C2.3105 26.6271 2.60725 26.75 2.91667 26.75H25.0833C25.3928 26.75 25.6895 26.6271 25.9083 26.4083C26.1271 26.1895 26.25 25.8928 26.25 25.5833V9.25C26.25 8.94058 26.1271 8.64383 25.9083 8.42504C25.6895 8.20625 25.3928 8.08333 25.0833 8.08333ZM8.75 22.0833H7.58333C7.27391 22.0833 6.97717 21.9604 6.75838 21.7416C6.53958 21.5228 6.41667 21.2261 6.41667 20.9167C6.41667 20.6072 6.53958 20.3105 6.75838 20.0917C6.97717 19.8729 7.27391 19.75 7.58333 19.75H8.75C9.05942 19.75 9.35616 19.8729 9.57496 20.0917C9.79375 20.3105 9.91667 20.6072 9.91667 20.9167C9.91667 21.2261 9.79375 21.5228 9.57496 21.7416C9.35616 21.9604 9.05942 22.0833 8.75 22.0833ZM8.75 17.4167H7.58333C7.27391 17.4167 6.97717 17.2937 6.75838 17.075C6.53958 16.8562 6.41667 16.5594 6.41667 16.25C6.41667 15.9406 6.53958 15.6438 6.75838 15.425C6.97717 15.2062 7.27391 15.0833 7.58333 15.0833H8.75C9.05942 15.0833 9.35616 15.2062 9.57496 15.425C9.79375 15.6438 9.91667 15.9406 9.91667 16.25C9.91667 16.5594 9.79375 16.8562 9.57496 17.075C9.35616 17.2937 9.05942 17.4167 8.75 17.4167ZM14.5833 22.0833H13.4167C13.1072 22.0833 12.8105 21.9604 12.5917 21.7416C12.3729 21.5228 12.25 21.2261 12.25 20.9167C12.25 20.6072 12.3729 20.3105 12.5917 20.0917C12.8105 19.8729 13.1072 19.75 13.4167 19.75H14.5833C14.8928 19.75 15.1895 19.8729 15.4083 20.0917C15.6271 20.3105 15.75 20.6072 15.75 20.9167C15.75 21.2261 15.6271 21.5228 15.4083 21.7416C15.1895 21.9604 14.8928 22.0833 14.5833 22.0833ZM14.5833 17.4167H13.4167C13.1072 17.4167 12.8105 17.2937 12.5917 17.075C12.3729 16.8562 12.25 16.5594 12.25 16.25C12.25 15.9406 12.3729 15.6438 12.5917 15.425C12.8105 15.2062 13.1072 15.0833 13.4167 15.0833H14.5833C14.8928 15.0833 15.1895 15.2062 15.4083 15.425C15.6271 15.6438 15.75 15.9406 15.75 16.25C15.75 16.5594 15.6271 16.8562 15.4083 17.075C15.1895 17.2937 14.8928 17.4167 14.5833 17.4167ZM15.75 11H15.1667V11.5833C15.1667 11.8928 15.0437 12.1895 14.825 12.4083C14.6062 12.6271 14.3094 12.75 14 12.75C13.6906 12.75 13.3938 12.6271 13.175 12.4083C12.9562 12.1895 12.8333 11.8928 12.8333 11.5833V11H12.25C11.9406 11 11.6438 10.8771 11.425 10.6583C11.2062 10.4395 11.0833 10.1428 11.0833 9.83333C11.0833 9.52391 11.2062 9.22717 11.425 9.00838C11.6438 8.78958 11.9406 8.66667 12.25 8.66667H12.8333V8.08333C12.8333 7.77391 12.9562 7.47717 13.175 7.25838C13.3938 7.03958 13.6906 6.91667 14 6.91667C14.3094 6.91667 14.6062 7.03958 14.825 7.25838C15.0437 7.47717 15.1667 7.77391 15.1667 8.08333V8.66667H15.75C16.0594 8.66667 16.3562 8.78958 16.575 9.00838C16.7937 9.22717 16.9167 9.52391 16.9167 9.83333C16.9167 10.1428 16.7937 10.4395 16.575 10.6583C16.3562 10.8771 16.0594 11 15.75 11ZM20.4167 22.0833H19.25C18.9406 22.0833 18.6438 21.9604 18.425 21.7416C18.2062 21.5228 18.0833 21.2261 18.0833 20.9167C18.0833 20.6072 18.2062 20.3105 18.425 20.0917C18.6438 19.8729 18.9406 19.75 19.25 19.75H20.4167C20.7261 19.75 21.0228 19.8729 21.2416 20.0917C21.4604 20.3105 21.5833 20.6072 21.5833 20.9167C21.5833 21.2261 21.4604 21.5228 21.2416 21.7416C21.0228 21.9604 20.7261 22.0833 20.4167 22.0833ZM20.4167 17.4167H19.25C18.9406 17.4167 18.6438 17.2937 18.425 17.075C18.2062 16.8562 18.0833 16.5594 18.0833 16.25C18.0833 15.9406 18.2062 15.6438 18.425 15.425C18.6438 15.2062 18.9406 15.0833 19.25 15.0833H20.4167C20.7261 15.0833 21.0228 15.2062 21.2416 15.425C21.4604 15.6438 21.5833 15.9406 21.5833 16.25C21.5833 16.5594 21.4604 16.8562 21.2416 17.075C21.0228 17.2937 20.7261 17.4167 20.4167 17.4167Z" fill="#CEFDFE" style="fill:#CEFDFE;fill:color(display-p3 0.8078 0.9922 0.9961);fill-opacity:1;"/>
</svg>
