<svg width="28" height="29" viewBox="0 0 28 29" fill="none" xmlns="http://www.w3.org/2000/svg">
<path d="M24.5009 14.5C24.2153 14.5005 23.9395 14.3959 23.7262 14.206L14.0009 5.56101L4.27555 14.206C4.04411 14.4115 3.74052 14.5166 3.43159 14.4982C3.12265 14.4798 2.83367 14.3395 2.62822 14.108C2.42277 13.8766 2.31767 13.573 2.33605 13.2641C2.35442 12.9551 2.49477 12.6661 2.72622 12.4607L13.2262 3.12735C13.4396 2.93751 13.7153 2.83264 14.0009 2.83264C14.2865 2.83264 14.5622 2.93751 14.7756 3.12735L25.2756 12.4607C25.4526 12.6178 25.5777 12.825 25.6342 13.0549C25.6907 13.2848 25.6759 13.5264 25.5919 13.7476C25.5078 13.9689 25.3584 14.1594 25.1636 14.2938C24.9687 14.4282 24.7376 14.5001 24.5009 14.5Z" fill="#FED575" style="fill:#FED575;fill:color(display-p3 0.9961 0.8353 0.4588);fill-opacity:1;"/>
<path d="M16.3333 15.6666H15.1667V14.5C15.1667 14.1906 15.0437 13.8938 14.825 13.675C14.6062 13.4562 14.3094 13.3333 14 13.3333C13.6906 13.3333 13.3938 13.4562 13.175 13.675C12.9562 13.8938 12.8333 14.1906 12.8333 14.5V15.6666H11.6667C11.3572 15.6666 11.0605 15.7896 10.8417 16.0084C10.6229 16.2271 10.5 16.5239 10.5 16.8333C10.5 17.1427 10.6229 17.4395 10.8417 17.6583C11.0605 17.8771 11.3572 18 11.6667 18H12.8333V19.1666C12.8333 19.4761 12.9562 19.7728 13.175 19.9916C13.3938 20.2104 13.6906 20.3333 14 20.3333C14.3094 20.3333 14.6062 20.2104 14.825 19.9916C15.0437 19.7728 15.1667 19.4761 15.1667 19.1666V18H16.3333C16.6428 18 16.9395 17.8771 17.1583 17.6583C17.3771 17.4395 17.5 17.1427 17.5 16.8333C17.5 16.5239 17.3771 16.2271 17.1583 16.0084C16.9395 15.7896 16.6428 15.6666 16.3333 15.6666Z" fill="#FFBF43" style="fill:#FFBF43;fill:color(display-p3 1.0000 0.7490 0.2627);fill-opacity:1;"/>
<path d="M13.9993 5.56104L4.66602 13.8572V25C4.66602 25.3095 4.78893 25.6062 5.00772 25.825C5.22652 26.0438 5.52326 26.1667 5.83268 26.1667H22.166C22.4754 26.1667 22.7722 26.0438 22.991 25.825C23.2098 25.6062 23.3327 25.3095 23.3327 25V13.8572L13.9993 5.56104ZM16.3327 18H15.166V19.1667C15.166 19.4761 15.0431 19.7729 14.8243 19.9917C14.6055 20.2105 14.3088 20.3334 13.9993 20.3334C13.6899 20.3334 13.3932 20.2105 13.1744 19.9917C12.9556 19.7729 12.8327 19.4761 12.8327 19.1667V18H11.666C11.3566 18 11.0599 17.8771 10.8411 17.6583C10.6223 17.4395 10.4993 17.1428 10.4993 16.8334C10.4993 16.5239 10.6223 16.2272 10.8411 16.0084C11.0599 15.7896 11.3566 15.6667 11.666 15.6667H12.8327V14.5C12.8327 14.1906 12.9556 13.8939 13.1744 13.6751C13.3932 13.4563 13.6899 13.3334 13.9993 13.3334C14.3088 13.3334 14.6055 13.4563 14.8243 13.6751C15.0431 13.8939 15.166 14.1906 15.166 14.5V15.6667H16.3327C16.6421 15.6667 16.9388 15.7896 17.1576 16.0084C17.3764 16.2272 17.4993 16.5239 17.4993 16.8334C17.4993 17.1428 17.3764 17.4395 17.1576 17.6583C16.9388 17.8771 16.6421 18 16.3327 18Z" fill="#FDF5E1" style="fill:#FDF5E1;fill:color(display-p3 0.9917 0.9595 0.8842);fill-opacity:1;"/>
</svg>
