<svg width="96" height="28" viewBox="0 0 96 28" fill="none" xmlns="http://www.w3.org/2000/svg">
<path d="M21.4009 12.2883C21.0023 12.6887 20.6971 13.1719 20.5069 13.7034C20.3168 14.2351 20.2464 14.802 20.3008 15.3638L20.2818 15.3449C20.3378 16.0063 20.2484 16.6718 20.0201 17.2952C19.7918 17.9185 19.43 18.4846 18.96 18.954C18.4899 19.4232 17.9229 19.7845 17.2985 20.0124C16.6742 20.2403 16.0075 20.3296 15.3452 20.2737L15.3641 20.2926C14.5718 20.219 13.7759 20.3911 13.0851 20.7856C12.3943 21.1801 11.8422 21.7777 11.5041 22.4969C11.1659 23.2162 11.0581 24.022 11.1955 24.8047C11.333 25.5873 11.7087 26.3085 12.2717 26.8701C12.8347 27.4316 13.5574 27.8062 14.3413 27.9426C15.1254 28.0791 15.9323 27.9707 16.6524 27.6325C17.3725 27.2942 17.9705 26.7425 18.365 26.0524C18.7595 25.3623 18.9313 24.5677 18.8568 23.7766L18.8768 23.7955C18.8208 23.1342 18.9101 22.4686 19.1384 21.8452C19.3668 21.2219 19.7287 20.6558 20.1987 20.1865C20.6688 19.7172 21.2357 19.3559 21.86 19.1281C22.4844 18.9001 23.151 18.8108 23.8134 18.8667L23.7935 18.8478C24.4407 18.9059 25.0922 18.7999 25.6876 18.5397C26.2828 18.2795 26.8028 17.8735 27.1991 17.3593C27.5953 16.8451 27.8553 16.2392 27.9546 15.5981C28.054 14.9568 27.9896 14.301 27.7675 13.6912C27.5454 13.0814 27.1727 12.5375 26.6839 12.1098C26.1952 11.6821 25.6063 11.3846 24.9717 11.2447C24.3371 11.1048 23.6774 11.1271 23.0537 11.3095C22.43 11.492 21.8627 11.8286 21.404 12.2883H21.4009Z" fill="#29A4DF" style="fill:#29A4DF;fill:color(display-p3 0.1608 0.6431 0.8745);fill-opacity:1;"/>
<path d="M13.6424 17.8166L13.6224 17.7977C14.1854 17.8543 14.754 17.7854 15.2871 17.5957C15.8201 17.4061 16.3043 17.1006 16.7045 16.7013C17.1047 16.302 17.4112 15.8188 17.6014 15.2867C17.7918 14.7547 17.8613 14.1871 17.805 13.625L17.825 13.6439C17.7691 12.9825 17.8585 12.317 18.0867 11.6936C18.315 11.0703 18.6769 10.5042 19.1469 10.0348C19.617 9.56559 20.184 9.20428 20.8083 8.97642C21.4327 8.74842 22.0992 8.65924 22.7617 8.71507L22.7417 8.69617C23.5342 8.77051 24.3302 8.5989 25.0214 8.20486C25.7126 7.81083 26.2652 7.21351 26.6039 6.49438C26.9425 5.77526 27.0507 4.96934 26.9138 4.18654C26.7769 3.40374 26.4014 2.68219 25.8385 2.12028C25.2758 1.55838 24.553 1.18348 23.769 1.04675C22.985 0.910005 22.1778 1.01806 21.4575 1.35619C20.7372 1.69431 20.139 2.24604 19.7443 2.93612C19.3496 3.6262 19.1777 4.42103 19.2522 5.2122L19.2332 5.19225C19.2893 5.85365 19.2001 6.5193 18.9719 7.14272C18.7437 7.76613 18.3818 8.3323 17.9118 8.8017C17.4417 9.27095 16.8746 9.63226 16.2502 9.86012C15.6257 10.088 14.959 10.177 14.2966 10.121L14.3155 10.141C13.7525 10.0844 13.1839 10.1534 12.6509 10.343C12.1179 10.5326 11.6337 10.8381 11.2334 11.2374C10.8331 11.6368 10.5268 12.12 10.3364 12.652C10.1462 13.1841 10.0766 13.7516 10.1329 14.3138L10.114 14.2949C10.1697 14.9562 10.0802 15.6217 9.8519 16.245C9.62347 16.8682 9.26169 17.4342 8.79168 17.9035C8.32164 18.3727 7.75473 18.7339 7.13049 18.962C6.50624 19.19 5.83969 19.2793 5.17732 19.2237L5.19625 19.2426C4.40381 19.1682 3.60771 19.3398 2.91653 19.7339C2.22535 20.128 1.67274 20.7252 1.33408 21.4444C0.995412 22.1635 0.887171 22.9694 1.02413 23.7522C1.1611 24.535 1.53659 25.2566 2.09939 25.8184C2.66219 26.3804 3.3849 26.7553 4.16895 26.892C4.953 27.0287 5.76021 26.9206 6.48048 26.5825C7.20075 26.2444 7.79903 25.6927 8.19369 25.0027C8.58839 24.3125 8.76024 23.5177 8.68578 22.7265L8.70576 22.7454C8.64981 22.084 8.7392 21.4185 8.96753 20.7951C9.19575 20.1718 9.55764 19.6058 10.0276 19.1364C10.4977 18.6672 11.0647 18.3059 11.689 18.078C12.3134 17.85 12.98 17.7608 13.6424 17.8166Z" fill="#29A4DF" style="fill:#29A4DF;fill:color(display-p3 0.1608 0.6431 0.8745);fill-opacity:1;"/>
<path d="M6.59403 15.7093C6.99265 15.3091 7.29783 14.8258 7.48781 14.2942C7.67779 13.7626 7.74787 13.1956 7.69306 12.6338L7.71303 12.6527C7.65708 11.9912 7.74643 11.3254 7.97487 10.7019C8.20331 10.0784 8.56534 9.51221 9.03565 9.04285C9.50597 8.57351 10.0732 8.21232 10.6978 7.98451C11.3224 7.7567 11.9892 7.66777 12.6518 7.72392L12.6318 7.70502C13.424 7.77912 14.2198 7.60745 14.9106 7.21344C15.6015 6.81944 16.1537 6.22227 16.4923 5.50337C16.8307 4.78446 16.9388 3.97883 16.8019 3.19633C16.665 2.41382 16.2895 1.69254 15.727 1.13084C15.1644 0.569143 14.4419 0.19437 13.6582 0.0576361C12.8745 -0.079108 12.0675 0.0288551 11.3475 0.366773C10.6274 0.70469 10.0293 1.25613 9.6347 1.94589C9.24 2.63565 9.06805 3.43016 9.1423 4.22105L9.12337 4.20215C9.17932 4.86351 9.08992 5.52908 8.8616 6.15242C8.63328 6.77575 8.27151 7.34183 7.80145 7.81115C7.33139 8.28046 6.7644 8.6417 6.14007 8.8696C5.51574 9.09756 4.84911 9.18681 4.1867 9.13095L4.20563 9.14985C3.55838 9.09189 2.90695 9.19804 2.31171 9.45834C1.71647 9.71864 1.19667 10.1248 0.800488 10.6391C0.404303 11.1533 0.144555 11.7591 0.0452954 12.4003C-0.0539532 13.0415 0.0105053 13.6974 0.232697 14.307C0.454889 14.9168 0.827642 15.4606 1.3164 15.8881C1.80515 16.3158 2.3941 16.6133 3.02868 16.7532C3.66324 16.8929 4.32289 16.8705 4.94652 16.6882C5.57013 16.5057 6.13752 16.169 6.59613 15.7093H6.59403Z" fill="#29A4DF" style="fill:#29A4DF;fill:color(display-p3 0.1608 0.6431 0.8745);fill-opacity:1;"/>
<path d="M38.3118 19H36.343L39.9276 8.81818H42.2045L45.794 19H43.8253L41.1058 10.9062H41.0263L38.3118 19ZM38.3764 15.0078H43.7457V16.4893H38.3764V15.0078ZM53.5534 8.81818H55.3979V15.4702C55.3979 16.1993 55.2256 16.8407 54.8809 17.3942C54.5395 17.9477 54.0589 18.3802 53.4391 18.6918C52.8193 19 52.0951 19.1541 51.2665 19.1541C50.4346 19.1541 49.7087 19 49.089 18.6918C48.4692 18.3802 47.9886 17.9477 47.6472 17.3942C47.3058 16.8407 47.1351 16.1993 47.1351 15.4702V8.81818H48.9796V15.3161C48.9796 15.7403 49.0724 16.1181 49.258 16.4496C49.4469 16.781 49.7121 17.0412 50.0534 17.2301C50.3948 17.4157 50.7992 17.5085 51.2665 17.5085C51.7338 17.5085 52.1382 17.4157 52.4796 17.2301C52.8243 17.0412 53.0894 16.781 53.275 16.4496C53.4606 16.1181 53.5534 15.7403 53.5534 15.3161V8.81818ZM57.4027 19V8.81818H61.2209C62.0031 8.81818 62.6593 8.95407 63.1896 9.22585C63.7232 9.49763 64.1259 9.87879 64.3977 10.3693C64.6728 10.8565 64.8104 11.425 64.8104 12.0746C64.8104 12.7275 64.6712 13.2943 64.3928 13.7749C64.1177 14.2521 63.7116 14.6217 63.1747 14.8835C62.6378 15.142 61.9782 15.2713 61.196 15.2713H58.4766V13.7401H60.9474C61.4048 13.7401 61.7794 13.6771 62.071 13.5511C62.3627 13.4219 62.5781 13.2346 62.7173 12.9893C62.8598 12.7408 62.9311 12.4358 62.9311 12.0746C62.9311 11.7133 62.8598 11.4051 62.7173 11.1499C62.5748 10.8913 62.3577 10.6958 62.0661 10.5632C61.7744 10.4273 61.3982 10.3594 60.9375 10.3594H59.2472V19H57.4027ZM62.6626 14.3864L65.1832 19H63.125L60.6491 14.3864H62.6626ZM75.6062 13.9091C75.6062 15.0062 75.4007 15.9458 74.9897 16.728C74.582 17.5069 74.0252 18.1035 73.3192 18.5178C72.6166 18.9321 71.8195 19.1392 70.9279 19.1392C70.0363 19.1392 69.2376 18.9321 68.5316 18.5178C67.829 18.1001 67.2721 17.5019 66.8612 16.723C66.4535 15.9408 66.2496 15.0028 66.2496 13.9091C66.2496 12.812 66.4535 11.8741 66.8612 11.0952C67.2721 10.313 67.829 9.71473 68.5316 9.30043C69.2376 8.88613 70.0363 8.67898 70.9279 8.67898C71.8195 8.67898 72.6166 8.88613 73.3192 9.30043C74.0252 9.71473 74.582 10.313 74.9897 11.0952C75.4007 11.8741 75.6062 12.812 75.6062 13.9091ZM73.7518 13.9091C73.7518 13.1368 73.6308 12.4856 73.3888 11.9553C73.1502 11.4216 72.8188 11.0189 72.3945 10.7472C71.9703 10.4721 71.4814 10.3345 70.9279 10.3345C70.3744 10.3345 69.8855 10.4721 69.4613 10.7472C69.0371 11.0189 68.704 11.4216 68.462 11.9553C68.2234 12.4856 68.104 13.1368 68.104 13.9091C68.104 14.6813 68.2234 15.3343 68.462 15.8679C68.704 16.3982 69.0371 16.8009 69.4613 17.076C69.8855 17.3478 70.3744 17.4837 70.9279 17.4837C71.4814 17.4837 71.9703 17.3478 72.3945 17.076C72.8188 16.8009 73.1502 16.3982 73.3888 15.8679C73.6308 15.3343 73.7518 14.6813 73.7518 13.9091ZM77.35 19V8.81818H81.1681C81.9503 8.81818 82.6066 8.95407 83.1369 9.22585C83.6705 9.49763 84.0732 9.87879 84.345 10.3693C84.6201 10.8565 84.7576 11.425 84.7576 12.0746C84.7576 12.7275 84.6184 13.2943 84.34 13.7749C84.0649 14.2521 83.6589 14.6217 83.122 14.8835C82.5851 15.142 81.9255 15.2713 81.1433 15.2713H78.4238V13.7401H80.8947C81.3521 13.7401 81.7266 13.6771 82.0183 13.5511C82.31 13.4219 82.5254 13.2346 82.6646 12.9893C82.8071 12.7408 82.8784 12.4358 82.8784 12.0746C82.8784 11.7133 82.8071 11.4051 82.6646 11.1499C82.5221 10.8913 82.305 10.6958 82.0133 10.5632C81.7217 10.4273 81.3455 10.3594 80.8848 10.3594H79.1944V19H77.35ZM82.6099 14.3864L85.1305 19H83.0723L80.5964 14.3864H82.6099ZM87.763 19H85.7942L89.3787 8.81818H91.6557L95.2452 19H93.2765L90.557 10.9062H90.4775L87.763 19ZM87.8276 15.0078H93.1969V16.4893H87.8276V15.0078Z" fill="black" style="fill:black;fill-opacity:1;"/>
</svg>
