<svg width="182" height="48" viewBox="0 0 182 48" fill="none" xmlns="http://www.w3.org/2000/svg">
<path d="M29.044 21.6771C28.5031 22.2204 28.0889 22.8762 27.8308 23.5976C27.5727 24.3191 27.4773 25.0884 27.5511 25.851L27.5254 25.8253C27.6013 26.7229 27.48 27.6261 27.1701 28.4722C26.8602 29.3181 26.3692 30.0863 25.7314 30.7233C25.0934 31.3601 24.3239 31.8505 23.4765 32.1597C22.6293 32.4691 21.7245 32.5902 20.8256 32.5144L20.8513 32.54C19.776 32.4402 18.6959 32.6737 17.7583 33.2091C16.8209 33.7445 16.0715 34.5555 15.6127 35.5316C15.1538 36.5078 15.0075 37.6013 15.1939 38.6635C15.3804 39.7256 15.8904 40.7045 16.6544 41.4666C17.4185 42.2287 18.3993 42.737 19.4632 42.9221C20.5273 43.1073 21.6225 42.9603 22.5997 42.5013C23.577 42.0421 24.3886 41.2934 24.924 40.3569C25.4593 39.4204 25.6924 38.3419 25.5914 37.2683L25.6185 37.2939C25.5426 36.3965 25.6637 35.4931 25.9736 34.6471C26.2835 33.8012 26.7746 33.033 27.4125 32.396C28.0505 31.7591 28.8199 31.2688 29.6672 30.9596C30.5146 30.6502 31.4192 30.5291 32.3182 30.6049L32.2911 30.5792C33.1695 30.658 34.0537 30.5142 34.8617 30.1611C35.6696 29.808 36.3752 29.2569 36.913 28.5591C37.4508 27.8613 37.8037 27.039 37.9384 26.1689C38.0733 25.2986 37.9859 24.4086 37.6845 23.5809C37.383 22.7534 36.8772 22.0152 36.2139 21.4348C35.5507 20.8544 34.7514 20.4505 33.8901 20.2607C33.0289 20.0709 32.1336 20.1011 31.2872 20.3487C30.4408 20.5963 29.6707 21.0532 29.0483 21.6771H29.044Z" fill="#29A4DF" style="fill:#29A4DF;fill:color(display-p3 0.1608 0.6431 0.8745);fill-opacity:1;"/>
<path d="M18.5147 29.1797L18.4875 29.1541C19.2516 29.2309 20.0232 29.1373 20.7467 28.8799C21.47 28.6226 22.1272 28.208 22.6704 27.6661C23.2135 27.1241 23.6294 26.4683 23.8876 25.7463C24.1459 25.0242 24.2403 24.254 24.1639 23.491L24.191 23.5167C24.1151 22.6191 24.2364 21.7159 24.5462 20.8698C24.856 20.0239 25.3472 19.2557 25.985 18.6187C26.623 17.9819 27.3925 17.4915 28.2397 17.1823C29.0871 16.8729 29.9917 16.7518 30.8908 16.8276L30.8637 16.802C31.9392 16.9028 33.0195 16.6699 33.9575 16.1352C34.8957 15.6004 35.6456 14.7898 36.1052 13.8138C36.5648 12.8379 36.7116 11.7441 36.5258 10.6817C36.34 9.61937 35.8304 8.64012 35.0665 7.87753C34.3028 7.11496 33.3219 6.60616 32.2579 6.4206C31.1938 6.23502 30.0984 6.38166 29.1208 6.84055C28.1432 7.29943 27.3314 8.04821 26.7957 8.98475C26.2601 9.92128 26.0268 11 26.1279 12.0737L26.1022 12.0466C26.1783 12.9442 26.0572 13.8476 25.7475 14.6937C25.4378 15.5398 24.9467 16.3081 24.3088 16.9452C23.6708 17.582 22.9012 18.0724 22.0538 18.3816C21.2063 18.6908 20.3015 18.8117 19.4024 18.7357L19.4281 18.7628C18.6641 18.686 17.8924 18.7796 17.169 19.037C16.4456 19.2942 15.7885 19.7089 15.2453 20.2508C14.702 20.7927 14.2863 21.4485 14.0279 22.1706C13.7697 22.8927 13.6754 23.6629 13.7518 24.4259L13.7261 24.4002C13.8017 25.2977 13.6802 26.2009 13.3704 27.0468C13.0604 27.8925 12.5694 28.6608 11.9315 29.2976C11.2936 29.9344 10.5242 30.4247 9.67703 30.7342C8.82984 31.0435 7.92523 31.1648 7.0263 31.0893L7.05199 31.1149C5.97655 31.014 4.89612 31.2469 3.95808 31.7817C3.02006 32.3165 2.27008 33.1271 1.81048 34.1031C1.35086 35.0791 1.20396 36.1728 1.38983 37.2351C1.57571 38.2975 2.08532 39.2768 2.84911 40.0393C3.61292 40.802 4.59373 41.3107 5.6578 41.4963C6.72187 41.6818 7.81737 41.5352 8.79488 41.0763C9.77239 40.6174 10.5843 39.8687 11.1199 38.9322C11.6556 37.9955 11.8888 36.9169 11.7878 35.8432L11.8149 35.8688C11.739 34.9712 11.8603 34.068 12.1702 33.222C12.4799 32.3761 12.971 31.6079 13.6089 30.9709C14.2469 30.334 15.0163 29.8437 15.8636 29.5344C16.711 29.2251 17.6156 29.1039 18.5147 29.1797Z" fill="#29A4DF" style="fill:#29A4DF;fill:color(display-p3 0.1608 0.6431 0.8745);fill-opacity:1;"/>
<path d="M8.94905 26.3198C9.49002 25.7766 9.9042 25.1208 10.162 24.3993C10.4199 23.6778 10.515 22.9083 10.4406 22.1459L10.4677 22.1715C10.3918 21.2738 10.513 20.3702 10.823 19.524C11.1331 18.6778 11.6244 17.9094 12.2627 17.2724C12.901 16.6355 13.6707 16.1453 14.5184 15.8361C15.3661 15.527 16.2711 15.4063 17.1703 15.4825L17.1432 15.4568C18.2182 15.5574 19.2983 15.3244 20.2359 14.7897C21.1735 14.255 21.9229 13.4445 22.3824 12.4689C22.8417 11.4932 22.9884 10.3998 22.8026 9.33787C22.6168 8.2759 22.1072 7.29702 21.3437 6.53471C20.5803 5.77241 19.5997 5.26379 18.5361 5.07822C17.4725 4.89264 16.3773 5.03916 15.4002 5.49776C14.4229 5.95637 13.6112 6.70475 13.0757 7.64085C12.54 8.57695 12.3066 9.65521 12.4074 10.7286L12.3817 10.7029C12.4576 11.6005 12.3363 12.5038 12.0265 13.3497C11.7166 14.1957 11.2256 14.9639 10.5877 15.6008C9.94974 16.2378 9.18026 16.728 8.33295 17.0373C7.48565 17.3467 6.58094 17.4678 5.68195 17.392L5.70764 17.4177C4.82924 17.339 3.94515 17.4831 3.13732 17.8363C2.3295 18.1896 1.62406 18.7408 1.08638 19.4388C0.548697 20.1366 0.196181 20.9588 0.0614724 21.829C-0.0732222 22.6992 0.0142572 23.5893 0.315804 24.4167C0.61735 25.2442 1.12323 25.9822 1.78654 26.5625C2.44985 27.1429 3.24914 27.5466 4.11035 27.7364C4.97154 27.9261 5.86679 27.8957 6.71313 27.6482C7.55947 27.4005 8.3295 26.9437 8.95189 26.3198H8.94905Z" fill="#29A4DF" style="fill:#29A4DF;fill:color(display-p3 0.1608 0.6431 0.8745);fill-opacity:1;"/>
<path d="M53.3026 19H50.4901L55.6108 4.45455H58.8636L63.9915 19H61.179L57.294 7.4375H57.1804L53.3026 19ZM53.3949 13.2969H61.0653V15.4134H53.3949V13.2969ZM75.0763 4.45455H77.7113V13.9574C77.7113 14.9991 77.4651 15.9152 76.9727 16.706C76.485 17.4967 75.7984 18.1146 74.913 18.5597C74.0276 19 72.993 19.2202 71.8093 19.2202C70.6209 19.2202 69.5839 19 68.6985 18.5597C67.8131 18.1146 67.1265 17.4967 66.6388 16.706C66.1512 15.9152 65.9073 14.9991 65.9073 13.9574V4.45455H68.5423V13.7372C68.5423 14.3433 68.6748 14.883 68.94 15.3565C69.2099 15.83 69.5887 16.2017 70.0763 16.4716C70.564 16.7367 71.1417 16.8693 71.8093 16.8693C72.4769 16.8693 73.0546 16.7367 73.5423 16.4716C74.0347 16.2017 74.4135 15.83 74.6786 15.3565C74.9438 14.883 75.0763 14.3433 75.0763 13.7372V4.45455ZM80.5753 19V4.45455H86.0298C87.1473 4.45455 88.0848 4.64867 88.8423 5.03693C89.6046 5.42519 90.1799 5.9697 90.5682 6.67045C90.9612 7.36648 91.1577 8.1785 91.1577 9.10653C91.1577 10.0393 90.9588 10.849 90.5611 11.5355C90.1681 12.2173 89.5881 12.7453 88.821 13.1193C88.054 13.4886 87.1117 13.6733 85.9943 13.6733H82.1094V11.4858H85.6392C86.2926 11.4858 86.8277 11.3958 87.2443 11.2159C87.661 11.0312 87.9688 10.7637 88.1676 10.4134C88.3712 10.0582 88.473 9.62263 88.473 9.10653C88.473 8.59044 88.3712 8.15009 88.1676 7.78551C87.964 7.41619 87.6539 7.13684 87.2372 6.94744C86.8205 6.75331 86.2831 6.65625 85.625 6.65625H83.2102V19H80.5753ZM88.0895 12.4091L91.6903 19H88.75L85.2131 12.4091H88.0895ZM106.58 11.7273C106.58 13.2945 106.287 14.6368 105.7 15.7543C105.117 16.867 104.322 17.7192 103.313 18.3111C102.309 18.9029 101.171 19.1989 99.897 19.1989C98.6233 19.1989 97.4822 18.9029 96.4737 18.3111C95.4699 17.7145 94.6745 16.8598 94.0874 15.7472C93.505 14.6297 93.2138 13.2898 93.2138 11.7273C93.2138 10.16 93.505 8.82008 94.0874 7.70739C94.6745 6.58996 95.4699 5.73532 96.4737 5.14347C97.4822 4.55161 98.6233 4.25568 99.897 4.25568C101.171 4.25568 102.309 4.55161 103.313 5.14347C104.322 5.73532 105.117 6.58996 105.7 7.70739C106.287 8.82008 106.58 10.16 106.58 11.7273ZM103.931 11.7273C103.931 10.6241 103.758 9.69366 103.413 8.93608C103.072 8.17377 102.598 7.59848 101.992 7.21023C101.386 6.81723 100.688 6.62074 99.897 6.62074C99.1063 6.62074 98.4079 6.81723 97.8018 7.21023C97.1958 7.59848 96.7199 8.17377 96.3743 8.93608C96.0334 9.69366 95.8629 10.6241 95.8629 11.7273C95.8629 12.8305 96.0334 13.7633 96.3743 14.5256C96.7199 15.2831 97.1958 15.8584 97.8018 16.2514C98.4079 16.6397 99.1063 16.8338 99.897 16.8338C100.688 16.8338 101.386 16.6397 101.992 16.2514C102.598 15.8584 103.072 15.2831 103.413 14.5256C103.758 13.7633 103.931 12.8305 103.931 11.7273ZM109.071 19V4.45455H114.526C115.643 4.45455 116.581 4.64867 117.338 5.03693C118.101 5.42519 118.676 5.9697 119.064 6.67045C119.457 7.36648 119.654 8.1785 119.654 9.10653C119.654 10.0393 119.455 10.849 119.057 11.5355C118.664 12.2173 118.084 12.7453 117.317 13.1193C116.55 13.4886 115.608 13.6733 114.49 13.6733H110.605V11.4858H114.135C114.789 11.4858 115.324 11.3958 115.74 11.2159C116.157 11.0312 116.465 10.7637 116.664 10.4134C116.867 10.0582 116.969 9.62263 116.969 9.10653C116.969 8.59044 116.867 8.15009 116.664 7.78551C116.46 7.41619 116.15 7.13684 115.733 6.94744C115.317 6.75331 114.779 6.65625 114.121 6.65625H111.706V19H109.071ZM116.586 12.4091L120.186 19H117.246L113.709 12.4091H116.586ZM123.947 19H121.135L126.255 4.45455H129.508L134.636 19H131.824L127.939 7.4375H127.825L123.947 19ZM124.039 13.2969H131.71V15.4134H124.039V13.2969Z" fill="#0EB0F1" style="fill:#0EB0F1;fill:color(display-p3 0.0549 0.6902 0.9451);fill-opacity:1;"/>
<path d="M51.1307 36H50.1989L52.2926 30.1818H53.3068L55.4006 36H54.4688L52.8239 31.2386H52.7784L51.1307 36ZM51.2869 33.7216H54.3097V34.4602H51.2869V33.7216ZM58.9368 34.1903V31.6364H59.7891V36H58.9538V35.2443H58.9084C58.808 35.4773 58.647 35.6714 58.4254 35.8267C58.2057 35.9801 57.9321 36.0568 57.6044 36.0568C57.3241 36.0568 57.076 35.9953 56.8601 35.8722C56.6461 35.7472 56.4775 35.5625 56.3544 35.3182C56.2332 35.0739 56.1726 34.7718 56.1726 34.4119V31.6364H57.022V34.3097C57.022 34.607 57.1044 34.8437 57.2692 35.0199C57.4339 35.196 57.648 35.2841 57.9112 35.2841C58.0703 35.2841 58.2285 35.2443 58.3857 35.1648C58.5447 35.0852 58.6764 34.965 58.7805 34.804C58.8866 34.643 58.9387 34.4384 58.9368 34.1903ZM62.9673 31.6364V32.3182H60.5838V31.6364H62.9673ZM61.223 30.5909H62.0724V34.7188C62.0724 34.8835 62.0971 35.0076 62.1463 35.0909C62.1955 35.1723 62.259 35.2282 62.3366 35.2585C62.4162 35.2869 62.5024 35.3011 62.5952 35.3011C62.6634 35.3011 62.723 35.2964 62.7741 35.2869C62.8253 35.2775 62.8651 35.2699 62.8935 35.2642L63.0469 35.9659C62.9976 35.9848 62.9276 36.0038 62.8366 36.0227C62.7457 36.0436 62.6321 36.0549 62.4957 36.0568C62.2723 36.0606 62.0639 36.0208 61.8707 35.9375C61.6776 35.8542 61.5213 35.7254 61.402 35.5511C61.2827 35.3769 61.223 35.1581 61.223 34.8949V30.5909ZM65.6982 36.0881C65.2891 36.0881 64.9321 35.9943 64.6271 35.8068C64.3222 35.6193 64.0855 35.357 63.9169 35.0199C63.7483 34.6828 63.6641 34.2888 63.6641 33.8381C63.6641 33.3854 63.7483 32.9896 63.9169 32.6506C64.0855 32.3116 64.3222 32.0483 64.6271 31.8608C64.9321 31.6733 65.2891 31.5795 65.6982 31.5795C66.1072 31.5795 66.4643 31.6733 66.7692 31.8608C67.0741 32.0483 67.3108 32.3116 67.4794 32.6506C67.648 32.9896 67.7322 33.3854 67.7322 33.8381C67.7322 34.2888 67.648 34.6828 67.4794 35.0199C67.3108 35.357 67.0741 35.6193 66.7692 35.8068C66.4643 35.9943 66.1072 36.0881 65.6982 36.0881ZM65.701 35.375C65.9661 35.375 66.1858 35.3049 66.3601 35.1648C66.5343 35.0246 66.6631 34.8381 66.7464 34.6051C66.8317 34.3722 66.8743 34.1155 66.8743 33.8352C66.8743 33.5568 66.8317 33.3011 66.7464 33.0682C66.6631 32.8333 66.5343 32.6449 66.3601 32.5028C66.1858 32.3608 65.9661 32.2898 65.701 32.2898C65.4339 32.2898 65.2124 32.3608 65.0362 32.5028C64.862 32.6449 64.7322 32.8333 64.647 33.0682C64.5637 33.3011 64.522 33.5568 64.522 33.8352C64.522 34.1155 64.5637 34.3722 64.647 34.6051C64.7322 34.8381 64.862 35.0246 65.0362 35.1648C65.2124 35.3049 65.4339 35.375 65.701 35.375ZM68.6804 36V31.6364H69.4957V32.3466H69.5497C69.6406 32.1061 69.7893 31.9186 69.9957 31.7841C70.2022 31.6477 70.4493 31.5795 70.7372 31.5795C71.0289 31.5795 71.2732 31.6477 71.4702 31.7841C71.669 31.9205 71.8158 32.108 71.9105 32.3466H71.956C72.0601 32.1136 72.2259 31.928 72.4531 31.7898C72.6804 31.6496 72.9512 31.5795 73.2656 31.5795C73.6615 31.5795 73.9844 31.7036 74.2344 31.9517C74.4863 32.1998 74.6122 32.5739 74.6122 33.0739V36H73.7628V33.1534C73.7628 32.858 73.6823 32.6439 73.5213 32.5114C73.3603 32.3788 73.1681 32.3125 72.9446 32.3125C72.6681 32.3125 72.4531 32.3977 72.2997 32.5682C72.1463 32.7367 72.0696 32.9536 72.0696 33.2188V36H71.223V33.0994C71.223 32.8627 71.1491 32.6723 71.0014 32.5284C70.8537 32.3845 70.6615 32.3125 70.4247 32.3125C70.2637 32.3125 70.1151 32.3551 69.9787 32.4403C69.8442 32.5237 69.7353 32.6402 69.652 32.7898C69.5705 32.9394 69.5298 33.1127 69.5298 33.3097V36H68.6804ZM77.0206 36.0966C76.7441 36.0966 76.4941 36.0455 76.2706 35.9432C76.0471 35.839 75.87 35.6884 75.7393 35.4915C75.6106 35.2945 75.5462 35.053 75.5462 34.767C75.5462 34.5208 75.5935 34.3182 75.6882 34.1591C75.7829 34 75.9107 33.8741 76.0717 33.7812C76.2327 33.6884 76.4126 33.6184 76.6115 33.571C76.8104 33.5237 77.013 33.4877 77.2195 33.4631C77.4808 33.4328 77.6929 33.4081 77.8558 33.3892C78.0187 33.3684 78.1371 33.3352 78.2109 33.2898C78.2848 33.2443 78.3217 33.1705 78.3217 33.0682V33.0483C78.3217 32.8002 78.2517 32.608 78.1115 32.4716C77.9732 32.3352 77.7668 32.267 77.4922 32.267C77.2062 32.267 76.9808 32.3305 76.8161 32.4574C76.6532 32.5824 76.5405 32.7216 76.478 32.875L75.6797 32.6932C75.7744 32.428 75.9126 32.214 76.0945 32.0511C76.2782 31.8864 76.4893 31.767 76.728 31.6932C76.9666 31.6174 77.2176 31.5795 77.4808 31.5795C77.6551 31.5795 77.8397 31.6004 78.0348 31.642C78.2318 31.6818 78.4155 31.7557 78.5859 31.8636C78.7583 31.9716 78.8994 32.1259 79.0092 32.3267C79.1191 32.5256 79.174 32.7841 79.174 33.1023V36H78.3445V35.4034H78.3104C78.2554 35.5133 78.1731 35.6212 78.0632 35.7273C77.9534 35.8333 77.8123 35.9214 77.6399 35.9915C77.4676 36.0616 77.2611 36.0966 77.0206 36.0966ZM77.2053 35.4148C77.4401 35.4148 77.6409 35.3684 77.8075 35.2756C77.9761 35.1828 78.1039 35.0616 78.1911 34.9119C78.2801 34.7604 78.3246 34.5985 78.3246 34.4261V33.8636C78.2943 33.8939 78.2356 33.9223 78.1484 33.9489C78.0632 33.9735 77.9657 33.9953 77.8558 34.0142C77.746 34.0312 77.639 34.0473 77.5348 34.0625C77.4306 34.0758 77.3435 34.0871 77.2734 34.0966C77.1087 34.1174 76.9581 34.1525 76.8217 34.2017C76.6873 34.2509 76.5793 34.322 76.4979 34.4148C76.4183 34.5057 76.3786 34.6269 76.3786 34.7784C76.3786 34.9886 76.4562 35.1477 76.6115 35.2557C76.7668 35.3617 76.9647 35.4148 77.2053 35.4148ZM82.3423 31.6364V32.3182H79.9588V31.6364H82.3423ZM80.598 30.5909H81.4474V34.7188C81.4474 34.8835 81.4721 35.0076 81.5213 35.0909C81.5705 35.1723 81.634 35.2282 81.7116 35.2585C81.7912 35.2869 81.8774 35.3011 81.9702 35.3011C82.0384 35.3011 82.098 35.2964 82.1491 35.2869C82.2003 35.2775 82.2401 35.2699 82.2685 35.2642L82.4219 35.9659C82.3726 35.9848 82.3026 36.0038 82.2116 36.0227C82.1207 36.0436 82.0071 36.0549 81.8707 36.0568C81.6473 36.0606 81.4389 36.0208 81.2457 35.9375C81.0526 35.8542 80.8963 35.7254 80.777 35.5511C80.6577 35.3769 80.598 35.1581 80.598 34.8949V30.5909ZM85.1158 36.0881C84.6858 36.0881 84.3156 35.9962 84.005 35.8125C83.6963 35.6269 83.4576 35.3665 83.2891 35.0312C83.1224 34.6941 83.0391 34.2992 83.0391 33.8466C83.0391 33.3996 83.1224 33.0057 83.2891 32.6648C83.4576 32.3239 83.6925 32.0578 83.9936 31.8665C84.2966 31.6752 84.6508 31.5795 85.0561 31.5795C85.3023 31.5795 85.541 31.6203 85.772 31.7017C86.0031 31.7831 86.2105 31.911 86.3942 32.0852C86.5779 32.2595 86.7228 32.4858 86.8288 32.7642C86.9349 33.0407 86.9879 33.3769 86.9879 33.7727V34.0739H83.5192V33.4375H86.1555C86.1555 33.214 86.1101 33.0161 86.0192 32.8438C85.9283 32.6695 85.8004 32.5322 85.6357 32.4318C85.4728 32.3314 85.2815 32.2812 85.0618 32.2812C84.8232 32.2812 84.6148 32.34 84.4368 32.4574C84.2607 32.5729 84.1243 32.7244 84.0277 32.9119C83.933 33.0975 83.8857 33.2992 83.8857 33.517V34.0142C83.8857 34.3059 83.9368 34.554 84.0391 34.7585C84.1432 34.9631 84.2881 35.1193 84.4737 35.2273C84.6593 35.3333 84.8762 35.3864 85.1243 35.3864C85.2853 35.3864 85.4321 35.3636 85.5646 35.3182C85.6972 35.2708 85.8118 35.2008 85.9084 35.108C86.005 35.0152 86.0788 34.9006 86.13 34.7642L86.9339 34.9091C86.8696 35.1458 86.754 35.3532 86.5874 35.5312C86.4226 35.7074 86.2152 35.8447 85.9652 35.9432C85.7171 36.0398 85.4339 36.0881 85.1158 36.0881ZM89.5639 36.0852C89.2116 36.0852 88.8973 35.9953 88.6207 35.8153C88.3461 35.6335 88.1302 35.375 87.973 35.0398C87.8177 34.7027 87.7401 34.2983 87.7401 33.8267C87.7401 33.3551 87.8187 32.9517 87.9759 32.6165C88.1349 32.2812 88.3527 32.0246 88.6293 31.8466C88.9058 31.6686 89.2192 31.5795 89.5696 31.5795C89.8404 31.5795 90.0582 31.625 90.223 31.7159C90.3897 31.8049 90.5185 31.9091 90.6094 32.0284C90.7022 32.1477 90.7741 32.2528 90.8253 32.3438H90.8764V30.1818H91.7259V36H90.8963V35.321H90.8253C90.7741 35.4138 90.7003 35.5199 90.6037 35.6392C90.509 35.7585 90.3783 35.8627 90.2116 35.9517C90.045 36.0407 89.8291 36.0852 89.5639 36.0852ZM89.7514 35.3608C89.9957 35.3608 90.2022 35.2964 90.3707 35.1676C90.5412 35.0369 90.67 34.8561 90.7571 34.625C90.8461 34.3939 90.8906 34.125 90.8906 33.8182C90.8906 33.5152 90.8471 33.25 90.7599 33.0227C90.6728 32.7955 90.545 32.6184 90.3764 32.4915C90.2079 32.3646 89.9995 32.3011 89.7514 32.3011C89.4957 32.3011 89.2827 32.3674 89.1122 32.5C88.9418 32.6326 88.813 32.8134 88.7259 33.0426C88.6406 33.2718 88.598 33.5303 88.598 33.8182C88.598 34.1098 88.6416 34.3722 88.7287 34.6051C88.8158 34.8381 88.9446 35.0227 89.1151 35.1591C89.2874 35.2936 89.4995 35.3608 89.7514 35.3608ZM98.8651 30.1818H99.7457V34.0085C99.7457 34.4157 99.6501 34.7765 99.4588 35.0909C99.2675 35.4034 98.9986 35.6496 98.652 35.8295C98.3054 36.0076 97.8991 36.0966 97.4332 36.0966C96.9692 36.0966 96.5639 36.0076 96.2173 35.8295C95.8707 35.6496 95.6018 35.4034 95.4105 35.0909C95.2192 34.7765 95.1236 34.4157 95.1236 34.0085V30.1818H96.0014V33.9375C96.0014 34.2008 96.0592 34.4347 96.1747 34.6392C96.2921 34.8438 96.4579 35.0047 96.6719 35.1222C96.8859 35.2377 97.1397 35.2955 97.4332 35.2955C97.7287 35.2955 97.9834 35.2377 98.1974 35.1222C98.4134 35.0047 98.5781 34.8438 98.6918 34.6392C98.8073 34.4347 98.8651 34.2008 98.8651 33.9375V30.1818ZM101.803 33.4091V36H100.954V31.6364H101.769V32.3466H101.823C101.924 32.1155 102.081 31.9299 102.295 31.7898C102.511 31.6496 102.782 31.5795 103.11 31.5795C103.407 31.5795 103.668 31.642 103.891 31.767C104.115 31.8902 104.288 32.0739 104.411 32.3182C104.534 32.5625 104.596 32.8646 104.596 33.2244V36H103.746V33.3267C103.746 33.0104 103.664 32.7633 103.499 32.5852C103.335 32.4053 103.108 32.3153 102.82 32.3153C102.623 32.3153 102.448 32.358 102.295 32.4432C102.143 32.5284 102.023 32.6534 101.934 32.8182C101.847 32.9811 101.803 33.178 101.803 33.4091ZM105.735 36V31.6364H106.585V36H105.735ZM106.164 30.9631C106.016 30.9631 105.889 30.9138 105.783 30.8153C105.679 30.715 105.627 30.5956 105.627 30.4574C105.627 30.3172 105.679 30.1979 105.783 30.0994C105.889 29.9991 106.016 29.9489 106.164 29.9489C106.312 29.9489 106.438 29.9991 106.542 30.0994C106.648 30.1979 106.701 30.3172 106.701 30.4574C106.701 30.5956 106.648 30.715 106.542 30.8153C106.438 30.9138 106.312 30.9631 106.164 30.9631ZM109.804 31.6364V32.3182H107.338V31.6364H109.804ZM108.014 36V31.1307C108.014 30.858 108.074 30.6316 108.193 30.4517C108.313 30.2699 108.471 30.1345 108.668 30.0455C108.865 29.9545 109.079 29.9091 109.31 29.9091C109.48 29.9091 109.626 29.9233 109.747 29.9517C109.868 29.9782 109.958 30.0028 110.017 30.0256L109.818 30.7131C109.778 30.7017 109.727 30.6884 109.665 30.6733C109.602 30.6562 109.527 30.6477 109.438 30.6477C109.231 30.6477 109.083 30.6989 108.994 30.8011C108.907 30.9034 108.864 31.0511 108.864 31.2443V36H108.014ZM110.68 36V31.6364H111.53V36H110.68ZM111.109 30.9631C110.962 30.9631 110.835 30.9138 110.729 30.8153C110.625 30.715 110.572 30.5956 110.572 30.4574C110.572 30.3172 110.625 30.1979 110.729 30.0994C110.835 29.9991 110.962 29.9489 111.109 29.9489C111.257 29.9489 111.383 29.9991 111.487 30.0994C111.593 30.1979 111.646 30.3172 111.646 30.4574C111.646 30.5956 111.593 30.715 111.487 30.8153C111.383 30.9138 111.257 30.9631 111.109 30.9631ZM114.553 36.0881C114.123 36.0881 113.753 35.9962 113.442 35.8125C113.134 35.6269 112.895 35.3665 112.727 35.0312C112.56 34.6941 112.477 34.2992 112.477 33.8466C112.477 33.3996 112.56 33.0057 112.727 32.6648C112.895 32.3239 113.13 32.0578 113.431 31.8665C113.734 31.6752 114.088 31.5795 114.494 31.5795C114.74 31.5795 114.978 31.6203 115.21 31.7017C115.441 31.7831 115.648 31.911 115.832 32.0852C116.015 32.2595 116.16 32.4858 116.266 32.7642C116.372 33.0407 116.425 33.3769 116.425 33.7727V34.0739H112.957V33.4375H115.593C115.593 33.214 115.548 33.0161 115.457 32.8438C115.366 32.6695 115.238 32.5322 115.073 32.4318C114.91 32.3314 114.719 32.2812 114.499 32.2812C114.261 32.2812 114.052 32.34 113.874 32.4574C113.698 32.5729 113.562 32.7244 113.465 32.9119C113.371 33.0975 113.323 33.2992 113.323 33.517V34.0142C113.323 34.3059 113.374 34.554 113.477 34.7585C113.581 34.9631 113.726 35.1193 113.911 35.2273C114.097 35.3333 114.314 35.3864 114.562 35.3864C114.723 35.3864 114.87 35.3636 115.002 35.3182C115.135 35.2708 115.249 35.2008 115.346 35.108C115.442 35.0152 115.516 34.9006 115.567 34.7642L116.371 34.9091C116.307 35.1458 116.192 35.3532 116.025 35.5312C115.86 35.7074 115.653 35.8447 115.403 35.9432C115.155 36.0398 114.871 36.0881 114.553 36.0881ZM119.001 36.0852C118.649 36.0852 118.335 35.9953 118.058 35.8153C117.784 35.6335 117.568 35.375 117.411 35.0398C117.255 34.7027 117.178 34.2983 117.178 33.8267C117.178 33.3551 117.256 32.9517 117.413 32.6165C117.572 32.2812 117.79 32.0246 118.067 31.8466C118.343 31.6686 118.657 31.5795 119.007 31.5795C119.278 31.5795 119.496 31.625 119.661 31.7159C119.827 31.8049 119.956 31.9091 120.047 32.0284C120.14 32.1477 120.212 32.2528 120.263 32.3438H120.314V30.1818H121.163V36H120.334V35.321H120.263C120.212 35.4138 120.138 35.5199 120.041 35.6392C119.946 35.7585 119.816 35.8627 119.649 35.9517C119.482 36.0407 119.267 36.0852 119.001 36.0852ZM119.189 35.3608C119.433 35.3608 119.64 35.2964 119.808 35.1676C119.979 35.0369 120.107 34.8561 120.195 34.625C120.284 34.3939 120.328 34.125 120.328 33.8182C120.328 33.5152 120.285 33.25 120.197 33.0227C120.11 32.7955 119.982 32.6184 119.814 32.4915C119.645 32.3646 119.437 32.3011 119.189 32.3011C118.933 32.3011 118.72 32.3674 118.55 32.5C118.379 32.6326 118.25 32.8134 118.163 33.0426C118.078 33.2718 118.036 33.5303 118.036 33.8182C118.036 34.1098 118.079 34.3722 118.166 34.6051C118.253 34.8381 118.382 35.0227 118.553 35.1591C118.725 35.2936 118.937 35.3608 119.189 35.3608ZM124.561 36V30.1818H126.635C127.086 30.1818 127.46 30.2595 127.757 30.4148C128.056 30.5701 128.28 30.785 128.428 31.0597C128.575 31.3324 128.649 31.6477 128.649 32.0057C128.649 32.3617 128.574 32.6752 128.425 32.946C128.277 33.215 128.054 33.4242 127.754 33.5739C127.457 33.7235 127.083 33.7983 126.632 33.7983H125.061V33.0426H126.553C126.837 33.0426 127.068 33.0019 127.246 32.9205C127.426 32.839 127.557 32.7206 127.641 32.5653C127.724 32.41 127.766 32.2235 127.766 32.0057C127.766 31.786 127.723 31.5956 127.638 31.4347C127.554 31.2737 127.423 31.1506 127.243 31.0653C127.065 30.9782 126.831 30.9347 126.541 30.9347H125.439V36H124.561ZM127.433 33.375L128.871 36H127.871L126.462 33.375H127.433ZM131.475 36.0881C131.045 36.0881 130.675 35.9962 130.364 35.8125C130.056 35.6269 129.817 35.3665 129.648 35.0312C129.482 34.6941 129.398 34.2992 129.398 33.8466C129.398 33.3996 129.482 33.0057 129.648 32.6648C129.817 32.3239 130.052 32.0578 130.353 31.8665C130.656 31.6752 131.01 31.5795 131.415 31.5795C131.662 31.5795 131.9 31.6203 132.131 31.7017C132.362 31.7831 132.57 31.911 132.754 32.0852C132.937 32.2595 133.082 32.4858 133.188 32.7642C133.294 33.0407 133.347 33.3769 133.347 33.7727V34.0739H129.879V33.4375H132.515C132.515 33.214 132.469 33.0161 132.379 32.8438C132.288 32.6695 132.16 32.5322 131.995 32.4318C131.832 32.3314 131.641 32.2812 131.421 32.2812C131.183 32.2812 130.974 32.34 130.796 32.4574C130.62 32.5729 130.484 32.7244 130.387 32.9119C130.292 33.0975 130.245 33.2992 130.245 33.517V34.0142C130.245 34.3059 130.296 34.554 130.398 34.7585C130.503 34.9631 130.647 35.1193 130.833 35.2273C131.019 35.3333 131.236 35.3864 131.484 35.3864C131.645 35.3864 131.791 35.3636 131.924 35.3182C132.057 35.2708 132.171 35.2008 132.268 35.108C132.364 35.0152 132.438 34.9006 132.489 34.7642L133.293 34.9091C133.229 35.1458 133.113 35.3532 132.947 35.5312C132.782 35.7074 132.575 35.8447 132.325 35.9432C132.076 36.0398 131.793 36.0881 131.475 36.0881ZM134.29 37.6364V31.6364H135.119V32.3438H135.19C135.24 32.2528 135.311 32.1477 135.403 32.0284C135.496 31.9091 135.625 31.8049 135.79 31.7159C135.955 31.625 136.172 31.5795 136.443 31.5795C136.795 31.5795 137.11 31.6686 137.386 31.8466C137.663 32.0246 137.88 32.2812 138.037 32.6165C138.196 32.9517 138.276 33.3551 138.276 33.8267C138.276 34.2983 138.197 34.7027 138.04 35.0398C137.883 35.375 137.667 35.6335 137.392 35.8153C137.117 35.9953 136.804 36.0852 136.452 36.0852C136.187 36.0852 135.97 36.0407 135.801 35.9517C135.634 35.8627 135.504 35.7585 135.409 35.6392C135.314 35.5199 135.241 35.4138 135.19 35.321H135.139V37.6364H134.29ZM135.122 33.8182C135.122 34.125 135.167 34.3939 135.256 34.625C135.345 34.8561 135.473 35.0369 135.642 35.1676C135.811 35.2964 136.017 35.3608 136.261 35.3608C136.515 35.3608 136.727 35.2936 136.898 35.1591C137.068 35.0227 137.197 34.8381 137.284 34.6051C137.373 34.3722 137.418 34.1098 137.418 33.8182C137.418 33.5303 137.374 33.2718 137.287 33.0426C137.202 32.8134 137.073 32.6326 136.901 32.5C136.73 32.3674 136.517 32.3011 136.261 32.3011C136.015 32.3011 135.807 32.3646 135.636 32.4915C135.468 32.6184 135.34 32.7955 135.253 33.0227C135.166 33.25 135.122 33.5152 135.122 33.8182ZM141.065 36.0881C140.656 36.0881 140.299 35.9943 139.994 35.8068C139.689 35.6193 139.453 35.357 139.284 35.0199C139.116 34.6828 139.031 34.2888 139.031 33.8381C139.031 33.3854 139.116 32.9896 139.284 32.6506C139.453 32.3116 139.689 32.0483 139.994 31.8608C140.299 31.6733 140.656 31.5795 141.065 31.5795C141.474 31.5795 141.831 31.6733 142.136 31.8608C142.441 32.0483 142.678 32.3116 142.847 32.6506C143.015 32.9896 143.099 33.3854 143.099 33.8381C143.099 34.2888 143.015 34.6828 142.847 35.0199C142.678 35.357 142.441 35.6193 142.136 35.8068C141.831 35.9943 141.474 36.0881 141.065 36.0881ZM141.068 35.375C141.333 35.375 141.553 35.3049 141.727 35.1648C141.902 35.0246 142.03 34.8381 142.114 34.6051C142.199 34.3722 142.241 34.1155 142.241 33.8352C142.241 33.5568 142.199 33.3011 142.114 33.0682C142.03 32.8333 141.902 32.6449 141.727 32.5028C141.553 32.3608 141.333 32.2898 141.068 32.2898C140.801 32.2898 140.58 32.3608 140.403 32.5028C140.229 32.6449 140.099 32.8333 140.014 33.0682C139.931 33.3011 139.889 33.5568 139.889 33.8352C139.889 34.1155 139.931 34.3722 140.014 34.6051C140.099 34.8381 140.229 35.0246 140.403 35.1648C140.58 35.3049 140.801 35.375 141.068 35.375ZM147.317 32.7017L146.548 32.8381C146.515 32.7396 146.464 32.6458 146.394 32.5568C146.326 32.4678 146.233 32.3949 146.116 32.3381C145.998 32.2812 145.852 32.2528 145.675 32.2528C145.435 32.2528 145.234 32.3068 145.073 32.4148C144.912 32.5208 144.832 32.6581 144.832 32.8267C144.832 32.9725 144.886 33.09 144.994 33.179C145.102 33.268 145.276 33.3409 145.516 33.3977L146.21 33.5568C146.611 33.6496 146.91 33.7926 147.107 33.9858C147.304 34.179 147.403 34.4299 147.403 34.7386C147.403 35 147.327 35.233 147.175 35.4375C147.026 35.6402 146.817 35.7992 146.548 35.9148C146.281 36.0303 145.971 36.0881 145.619 36.0881C145.13 36.0881 144.731 35.9839 144.423 35.7756C144.114 35.5653 143.924 35.267 143.854 34.8807L144.675 34.7557C144.727 34.9697 144.832 35.1316 144.991 35.2415C145.15 35.3494 145.357 35.4034 145.613 35.4034C145.891 35.4034 146.114 35.3456 146.281 35.2301C146.447 35.1127 146.531 34.9697 146.531 34.8011C146.531 34.6648 146.479 34.5502 146.377 34.4574C146.277 34.3646 146.122 34.2945 145.914 34.2472L145.175 34.0852C144.768 33.9924 144.467 33.8447 144.272 33.642C144.079 33.4394 143.982 33.1828 143.982 32.8722C143.982 32.6146 144.054 32.3892 144.198 32.196C144.342 32.0028 144.541 31.8523 144.795 31.7443C145.049 31.6345 145.339 31.5795 145.667 31.5795C146.138 31.5795 146.51 31.6818 146.781 31.8864C147.051 32.089 147.23 32.3608 147.317 32.7017ZM148.337 36V31.6364H149.186V36H148.337ZM148.766 30.9631C148.618 30.9631 148.491 30.9138 148.385 30.8153C148.281 30.715 148.229 30.5956 148.229 30.4574C148.229 30.3172 148.281 30.1979 148.385 30.0994C148.491 29.9991 148.618 29.9489 148.766 29.9489C148.913 29.9489 149.039 29.9991 149.143 30.0994C149.25 30.1979 149.303 30.3172 149.303 30.4574C149.303 30.5956 149.25 30.715 149.143 30.8153C149.039 30.9138 148.913 30.9631 148.766 30.9631ZM152.366 31.6364V32.3182H149.982V31.6364H152.366ZM150.621 30.5909H151.471V34.7188C151.471 34.8835 151.496 35.0076 151.545 35.0909C151.594 35.1723 151.657 35.2282 151.735 35.2585C151.815 35.2869 151.901 35.3011 151.994 35.3011C152.062 35.3011 152.121 35.2964 152.173 35.2869C152.224 35.2775 152.263 35.2699 152.292 35.2642L152.445 35.9659C152.396 35.9848 152.326 36.0038 152.235 36.0227C152.144 36.0436 152.031 36.0549 151.894 36.0568C151.671 36.0606 151.462 36.0208 151.269 35.9375C151.076 35.8542 150.92 35.7254 150.8 35.5511C150.681 35.3769 150.621 35.1581 150.621 34.8949V30.5909ZM155.097 36.0881C154.688 36.0881 154.33 35.9943 154.026 35.8068C153.721 35.6193 153.484 35.357 153.315 35.0199C153.147 34.6828 153.062 34.2888 153.062 33.8381C153.062 33.3854 153.147 32.9896 153.315 32.6506C153.484 32.3116 153.721 32.0483 154.026 31.8608C154.33 31.6733 154.688 31.5795 155.097 31.5795C155.506 31.5795 155.863 31.6733 156.168 31.8608C156.473 32.0483 156.709 32.3116 156.878 32.6506C157.046 32.9896 157.131 33.3854 157.131 33.8381C157.131 34.2888 157.046 34.6828 156.878 35.0199C156.709 35.357 156.473 35.6193 156.168 35.8068C155.863 35.9943 155.506 36.0881 155.097 36.0881ZM155.099 35.375C155.365 35.375 155.584 35.3049 155.759 35.1648C155.933 35.0246 156.062 34.8381 156.145 34.6051C156.23 34.3722 156.273 34.1155 156.273 33.8352C156.273 33.5568 156.23 33.3011 156.145 33.0682C156.062 32.8333 155.933 32.6449 155.759 32.5028C155.584 32.3608 155.365 32.2898 155.099 32.2898C154.832 32.2898 154.611 32.3608 154.435 32.5028C154.26 32.6449 154.131 32.8333 154.045 33.0682C153.962 33.3011 153.92 33.5568 153.92 33.8352C153.92 34.1155 153.962 34.3722 154.045 34.6051C154.131 34.8381 154.26 35.0246 154.435 35.1648C154.611 35.3049 154.832 35.375 155.099 35.375ZM158.079 36V31.6364H158.9V32.3295H158.945C159.025 32.0947 159.165 31.91 159.366 31.7756C159.568 31.6392 159.798 31.571 160.053 31.571C160.106 31.571 160.169 31.5729 160.241 31.5767C160.315 31.5805 160.372 31.5852 160.414 31.5909V32.4034C160.38 32.3939 160.319 32.3835 160.232 32.3722C160.145 32.3589 160.058 32.3523 159.971 32.3523C159.77 32.3523 159.591 32.3949 159.434 32.4801C159.279 32.5634 159.156 32.6799 159.065 32.8295C158.974 32.9773 158.928 33.1458 158.928 33.3352V36H158.079ZM161.819 37.6364C161.692 37.6364 161.576 37.6259 161.472 37.6051C161.368 37.5862 161.29 37.5653 161.239 37.5426L161.444 36.8466C161.599 36.8883 161.737 36.9063 161.859 36.9006C161.98 36.8949 162.087 36.8494 162.18 36.7642C162.274 36.679 162.358 36.5398 162.43 36.3466L162.535 36.0568L160.938 31.6364H161.847L162.952 35.0227H162.998L164.103 31.6364H165.015L163.217 36.5824C163.133 36.8097 163.027 37.0019 162.898 37.1591C162.77 37.3182 162.616 37.4375 162.438 37.517C162.26 37.5966 162.054 37.6364 161.819 37.6364ZM169.768 36.0881C169.359 36.0881 169.002 35.9943 168.697 35.8068C168.393 35.6193 168.156 35.357 167.987 35.0199C167.819 34.6828 167.734 34.2888 167.734 33.8381C167.734 33.3854 167.819 32.9896 167.987 32.6506C168.156 32.3116 168.393 32.0483 168.697 31.8608C169.002 31.6733 169.359 31.5795 169.768 31.5795C170.178 31.5795 170.535 31.6733 170.839 31.8608C171.144 32.0483 171.381 32.3116 171.55 32.6506C171.718 32.9896 171.803 33.3854 171.803 33.8381C171.803 34.2888 171.718 34.6828 171.55 35.0199C171.381 35.357 171.144 35.6193 170.839 35.8068C170.535 35.9943 170.178 36.0881 169.768 36.0881ZM169.771 35.375C170.036 35.375 170.256 35.3049 170.43 35.1648C170.605 35.0246 170.733 34.8381 170.817 34.6051C170.902 34.3722 170.945 34.1155 170.945 33.8352C170.945 33.5568 170.902 33.3011 170.817 33.0682C170.733 32.8333 170.605 32.6449 170.43 32.5028C170.256 32.3608 170.036 32.2898 169.771 32.2898C169.504 32.2898 169.283 32.3608 169.107 32.5028C168.932 32.6449 168.803 32.8333 168.717 33.0682C168.634 33.3011 168.592 33.5568 168.592 33.8352C168.592 34.1155 168.634 34.3722 168.717 34.6051C168.803 34.8381 168.932 35.0246 169.107 35.1648C169.283 35.3049 169.504 35.375 169.771 35.375ZM174.827 31.6364V32.3182H172.362V31.6364H174.827ZM173.038 36V31.1307C173.038 30.858 173.097 30.6316 173.217 30.4517C173.336 30.2699 173.494 30.1345 173.691 30.0455C173.888 29.9545 174.102 29.9091 174.333 29.9091C174.504 29.9091 174.649 29.9233 174.771 29.9517C174.892 29.9782 174.982 30.0028 175.04 30.0256L174.842 30.7131C174.802 30.7017 174.751 30.6884 174.688 30.6733C174.626 30.6562 174.55 30.6477 174.461 30.6477C174.254 30.6477 174.107 30.6989 174.018 30.8011C173.931 30.9034 173.887 31.0511 173.887 31.2443V36H173.038ZM50.6392 46V40.1818H51.517V42.7102H54.4176V40.1818H55.2983V46H54.4176V43.4631H51.517V46H50.6392ZM58.3892 46.0881C57.9593 46.0881 57.589 45.9962 57.2784 45.8125C56.9697 45.6269 56.7311 45.3665 56.5625 45.0312C56.3958 44.6941 56.3125 44.2992 56.3125 43.8466C56.3125 43.3996 56.3958 43.0057 56.5625 42.6648C56.7311 42.3239 56.9659 42.0578 57.267 41.8665C57.5701 41.6752 57.9242 41.5795 58.3295 41.5795C58.5758 41.5795 58.8144 41.6203 59.0455 41.7017C59.2765 41.7831 59.4839 41.911 59.6676 42.0852C59.8513 42.2595 59.9962 42.4858 60.1023 42.7642C60.2083 43.0407 60.2614 43.3769 60.2614 43.7727V44.0739H56.7926V43.4375H59.429C59.429 43.214 59.3835 43.0161 59.2926 42.8438C59.2017 42.6695 59.0739 42.5322 58.9091 42.4318C58.7462 42.3314 58.5549 42.2812 58.3352 42.2812C58.0966 42.2812 57.8883 42.34 57.7102 42.4574C57.5341 42.5729 57.3977 42.7244 57.3011 42.9119C57.2064 43.0975 57.1591 43.2992 57.1591 43.517V44.0142C57.1591 44.3059 57.2102 44.554 57.3125 44.7585C57.4167 44.9631 57.5616 45.1193 57.7472 45.2273C57.9328 45.3333 58.1496 45.3864 58.3977 45.3864C58.5587 45.3864 58.7055 45.3636 58.8381 45.3182C58.9706 45.2708 59.0852 45.2008 59.1818 45.108C59.2784 45.0152 59.3523 44.9006 59.4034 44.7642L60.2074 44.9091C60.143 45.1458 60.0275 45.3532 59.8608 45.5312C59.696 45.7074 59.4886 45.8447 59.2386 45.9432C58.9905 46.0398 58.7074 46.0881 58.3892 46.0881ZM62.4737 46.0966C62.1972 46.0966 61.9472 46.0455 61.7237 45.9432C61.5002 45.839 61.3232 45.6884 61.1925 45.4915C61.0637 45.2945 60.9993 45.053 60.9993 44.767C60.9993 44.5208 61.0466 44.3182 61.1413 44.1591C61.236 44 61.3639 43.8741 61.5249 43.7812C61.6858 43.6884 61.8658 43.6184 62.0646 43.571C62.2635 43.5237 62.4661 43.4877 62.6726 43.4631C62.9339 43.4328 63.1461 43.4081 63.3089 43.3892C63.4718 43.3684 63.5902 43.3352 63.6641 43.2898C63.7379 43.2443 63.7749 43.1705 63.7749 43.0682V43.0483C63.7749 42.8002 63.7048 42.608 63.5646 42.4716C63.4264 42.3352 63.2199 42.267 62.9453 42.267C62.6593 42.267 62.4339 42.3305 62.2692 42.4574C62.1063 42.5824 61.9936 42.7216 61.9311 42.875L61.1328 42.6932C61.2275 42.428 61.3658 42.214 61.5476 42.0511C61.7313 41.8864 61.9425 41.767 62.1811 41.6932C62.4197 41.6174 62.6707 41.5795 62.9339 41.5795C63.1082 41.5795 63.2929 41.6004 63.4879 41.642C63.6849 41.6818 63.8686 41.7557 64.0391 41.8636C64.2114 41.9716 64.3525 42.1259 64.4624 42.3267C64.5722 42.5256 64.6271 42.7841 64.6271 43.1023V46H63.7976V45.4034H63.7635C63.7086 45.5133 63.6262 45.6212 63.5163 45.7273C63.4065 45.8333 63.2654 45.9214 63.093 45.9915C62.9207 46.0616 62.7143 46.0966 62.4737 46.0966ZM62.6584 45.4148C62.8932 45.4148 63.094 45.3684 63.2607 45.2756C63.4292 45.1828 63.5571 45.0616 63.6442 44.9119C63.7332 44.7604 63.7777 44.5985 63.7777 44.4261V43.8636C63.7474 43.8939 63.6887 43.9223 63.6016 43.9489C63.5163 43.9735 63.4188 43.9953 63.3089 44.0142C63.1991 44.0312 63.0921 44.0473 62.9879 44.0625C62.8838 44.0758 62.7966 44.0871 62.7266 44.0966C62.5618 44.1174 62.4112 44.1525 62.2749 44.2017C62.1404 44.2509 62.0324 44.322 61.951 44.4148C61.8714 44.5057 61.8317 44.6269 61.8317 44.7784C61.8317 44.9886 61.9093 45.1477 62.0646 45.2557C62.2199 45.3617 62.4179 45.4148 62.6584 45.4148ZM66.608 40.1818V46H65.7585V40.1818H66.608ZM69.7876 41.6364V42.3182H67.4041V41.6364H69.7876ZM68.0433 40.5909H68.8928V44.7188C68.8928 44.8835 68.9174 45.0076 68.9666 45.0909C69.0159 45.1723 69.0793 45.2282 69.157 45.2585C69.2365 45.2869 69.3227 45.3011 69.4155 45.3011C69.4837 45.3011 69.5433 45.2964 69.5945 45.2869C69.6456 45.2775 69.6854 45.2699 69.7138 45.2642L69.8672 45.9659C69.8179 45.9848 69.7479 46.0038 69.657 46.0227C69.5661 46.0436 69.4524 46.0549 69.3161 46.0568C69.0926 46.0606 68.8842 46.0208 68.6911 45.9375C68.4979 45.8542 68.3416 45.7254 68.2223 45.5511C68.103 45.3769 68.0433 45.1581 68.0433 44.8949V40.5909ZM71.6705 43.4091V46H70.821V40.1818H71.6591V42.3466H71.7131C71.8153 42.1117 71.9716 41.9252 72.1818 41.7869C72.392 41.6487 72.6667 41.5795 73.0057 41.5795C73.3049 41.5795 73.5663 41.6411 73.7898 41.7642C74.0152 41.8873 74.1894 42.071 74.3125 42.3153C74.4375 42.5578 74.5 42.8608 74.5 43.2244V46H73.6506V43.3267C73.6506 43.0066 73.5682 42.7585 73.4034 42.5824C73.2386 42.4044 73.0095 42.3153 72.7159 42.3153C72.5152 42.3153 72.3352 42.358 72.1761 42.4432C72.0189 42.5284 71.8949 42.6534 71.804 42.8182C71.715 42.9811 71.6705 43.178 71.6705 43.4091ZM77.4716 46.0881C77.0492 46.0881 76.6856 45.9924 76.3807 45.8011C76.0777 45.608 75.8447 45.3419 75.6818 45.0028C75.5189 44.6638 75.4375 44.2756 75.4375 43.8381C75.4375 43.3949 75.5208 43.0038 75.6875 42.6648C75.8542 42.3239 76.089 42.0578 76.392 41.8665C76.6951 41.6752 77.0521 41.5795 77.4631 41.5795C77.7945 41.5795 78.09 41.6411 78.3494 41.7642C78.6089 41.8854 78.8182 42.0559 78.9773 42.2756C79.1383 42.4953 79.2339 42.7519 79.2642 43.0455H78.4375C78.392 42.8409 78.2879 42.6648 78.125 42.517C77.964 42.3693 77.7481 42.2955 77.4773 42.2955C77.2405 42.2955 77.0331 42.358 76.8551 42.483C76.679 42.6061 76.5417 42.7822 76.4432 43.0114C76.3447 43.2386 76.2955 43.5076 76.2955 43.8182C76.2955 44.1364 76.3438 44.411 76.4403 44.642C76.5369 44.8731 76.6733 45.0521 76.8494 45.179C77.0275 45.3059 77.2367 45.3693 77.4773 45.3693C77.6383 45.3693 77.7841 45.34 77.9148 45.2812C78.0473 45.2206 78.1581 45.1345 78.2472 45.0227C78.3381 44.911 78.4015 44.7765 78.4375 44.6193H79.2642C79.2339 44.9015 79.142 45.1534 78.9886 45.375C78.8352 45.5966 78.6297 45.7708 78.3722 45.8977C78.1165 46.0246 77.8163 46.0881 77.4716 46.0881ZM81.4425 46.0966C81.166 46.0966 80.916 46.0455 80.6925 45.9432C80.469 45.839 80.2919 45.6884 80.1612 45.4915C80.0324 45.2945 79.968 45.053 79.968 44.767C79.968 44.5208 80.0154 44.3182 80.1101 44.1591C80.2048 44 80.3326 43.8741 80.4936 43.7812C80.6546 43.6884 80.8345 43.6184 81.0334 43.571C81.2322 43.5237 81.4349 43.4877 81.6413 43.4631C81.9027 43.4328 82.1148 43.4081 82.2777 43.3892C82.4406 43.3684 82.5589 43.3352 82.6328 43.2898C82.7067 43.2443 82.7436 43.1705 82.7436 43.0682V43.0483C82.7436 42.8002 82.6735 42.608 82.5334 42.4716C82.3951 42.3352 82.1887 42.267 81.9141 42.267C81.6281 42.267 81.4027 42.3305 81.2379 42.4574C81.075 42.5824 80.9624 42.7216 80.8999 42.875L80.1016 42.6932C80.1963 42.428 80.3345 42.214 80.5163 42.0511C80.7 41.8864 80.9112 41.767 81.1499 41.6932C81.3885 41.6174 81.6394 41.5795 81.9027 41.5795C82.0769 41.5795 82.2616 41.6004 82.4567 41.642C82.6536 41.6818 82.8374 41.7557 83.0078 41.8636C83.1802 41.9716 83.3213 42.1259 83.4311 42.3267C83.541 42.5256 83.5959 42.7841 83.5959 43.1023V46H82.7663V45.4034H82.7322C82.6773 45.5133 82.5949 45.6212 82.4851 45.7273C82.3752 45.8333 82.2341 45.9214 82.0618 45.9915C81.8894 46.0616 81.683 46.0966 81.4425 46.0966ZM81.6271 45.4148C81.862 45.4148 82.0627 45.3684 82.2294 45.2756C82.398 45.1828 82.5258 45.0616 82.6129 44.9119C82.7019 44.7604 82.7464 44.5985 82.7464 44.4261V43.8636C82.7161 43.8939 82.6574 43.9223 82.5703 43.9489C82.4851 43.9735 82.3875 43.9953 82.2777 44.0142C82.1679 44.0312 82.0608 44.0473 81.9567 44.0625C81.8525 44.0758 81.7654 44.0871 81.6953 44.0966C81.5305 44.1174 81.38 44.1525 81.2436 44.2017C81.1091 44.2509 81.0012 44.322 80.9197 44.4148C80.8402 44.5057 80.8004 44.6269 80.8004 44.7784C80.8004 44.9886 80.8781 45.1477 81.0334 45.2557C81.1887 45.3617 81.3866 45.4148 81.6271 45.4148ZM84.7273 46V41.6364H85.5483V42.3295H85.5938C85.6733 42.0947 85.8134 41.91 86.0142 41.7756C86.2169 41.6392 86.446 41.571 86.7017 41.571C86.7547 41.571 86.8172 41.5729 86.8892 41.5767C86.9631 41.5805 87.0208 41.5852 87.0625 41.5909V42.4034C87.0284 42.3939 86.9678 42.3835 86.8807 42.3722C86.7936 42.3589 86.7064 42.3523 86.6193 42.3523C86.4186 42.3523 86.2396 42.3949 86.0824 42.4801C85.9271 42.5634 85.804 42.6799 85.7131 42.8295C85.6222 42.9773 85.5767 43.1458 85.5767 43.3352V46H84.7273ZM89.522 46.0881C89.0921 46.0881 88.7218 45.9962 88.4112 45.8125C88.1025 45.6269 87.8639 45.3665 87.6953 45.0312C87.5286 44.6941 87.4453 44.2992 87.4453 43.8466C87.4453 43.3996 87.5286 43.0057 87.6953 42.6648C87.8639 42.3239 88.0987 42.0578 88.3999 41.8665C88.7029 41.6752 89.0571 41.5795 89.4624 41.5795C89.7086 41.5795 89.9472 41.6203 90.1783 41.7017C90.4093 41.7831 90.6167 41.911 90.8004 42.0852C90.9841 42.2595 91.129 42.4858 91.2351 42.7642C91.3411 43.0407 91.3942 43.3769 91.3942 43.7727V44.0739H87.9254V43.4375H90.5618C90.5618 43.214 90.5163 43.0161 90.4254 42.8438C90.3345 42.6695 90.2067 42.5322 90.0419 42.4318C89.879 42.3314 89.6877 42.2812 89.468 42.2812C89.2294 42.2812 89.0211 42.34 88.843 42.4574C88.6669 42.5729 88.5305 42.7244 88.4339 42.9119C88.3393 43.0975 88.2919 43.2992 88.2919 43.517V44.0142C88.2919 44.3059 88.343 44.554 88.4453 44.7585C88.5495 44.9631 88.6944 45.1193 88.88 45.2273C89.0656 45.3333 89.2824 45.3864 89.5305 45.3864C89.6915 45.3864 89.8383 45.3636 89.9709 45.3182C90.1035 45.2708 90.218 45.2008 90.3146 45.108C90.4112 45.0152 90.4851 44.9006 90.5362 44.7642L91.3402 44.9091C91.2758 45.1458 91.1603 45.3532 90.9936 45.5312C90.8288 45.7074 90.6214 45.8447 90.3714 45.9432C90.1233 46.0398 89.8402 46.0881 89.522 46.0881ZM94.522 46V40.1818H96.5959C97.0466 40.1818 97.4207 40.2595 97.718 40.4148C98.0173 40.5701 98.2408 40.785 98.3885 41.0597C98.5362 41.3324 98.6101 41.6477 98.6101 42.0057C98.6101 42.3617 98.5353 42.6752 98.3857 42.946C98.2379 43.215 98.0144 43.4242 97.7152 43.5739C97.4179 43.7235 97.0438 43.7983 96.593 43.7983H95.022V43.0426H96.5135C96.7976 43.0426 97.0286 43.0019 97.2067 42.9205C97.3866 42.839 97.5182 42.7206 97.6016 42.5653C97.6849 42.41 97.7266 42.2235 97.7266 42.0057C97.7266 41.786 97.6839 41.5956 97.5987 41.4347C97.5154 41.2737 97.3838 41.1506 97.2038 41.0653C97.0258 40.9782 96.7919 40.9347 96.5021 40.9347H95.3999V46H94.522ZM97.3942 43.375L98.8317 46H97.8317L96.4226 43.375H97.3942ZM101.436 46.0881C101.006 46.0881 100.636 45.9962 100.325 45.8125C100.017 45.6269 99.7779 45.3665 99.6094 45.0312C99.4427 44.6941 99.3594 44.2992 99.3594 43.8466C99.3594 43.3996 99.4427 43.0057 99.6094 42.6648C99.7779 42.3239 100.013 42.0578 100.314 41.8665C100.617 41.6752 100.971 41.5795 101.376 41.5795C101.623 41.5795 101.861 41.6203 102.092 41.7017C102.323 41.7831 102.531 41.911 102.714 42.0852C102.898 42.2595 103.043 42.4858 103.149 42.7642C103.255 43.0407 103.308 43.3769 103.308 43.7727V44.0739H99.8395V43.4375H102.476C102.476 43.214 102.43 43.0161 102.339 42.8438C102.249 42.6695 102.121 42.5322 101.956 42.4318C101.793 42.3314 101.602 42.2812 101.382 42.2812C101.143 42.2812 100.935 42.34 100.757 42.4574C100.581 42.5729 100.445 42.7244 100.348 42.9119C100.253 43.0975 100.206 43.2992 100.206 43.517V44.0142C100.206 44.3059 100.257 44.554 100.359 44.7585C100.464 44.9631 100.608 45.1193 100.794 45.2273C100.98 45.3333 101.196 45.3864 101.445 45.3864C101.606 45.3864 101.752 45.3636 101.885 45.3182C102.018 45.2708 102.132 45.2008 102.229 45.108C102.325 45.0152 102.399 44.9006 102.45 44.7642L103.254 44.9091C103.19 45.1458 103.074 45.3532 102.908 45.5312C102.743 45.7074 102.536 45.8447 102.286 45.9432C102.037 46.0398 101.754 46.0881 101.436 46.0881ZM106.089 46.0881C105.666 46.0881 105.303 45.9924 104.998 45.8011C104.695 45.608 104.462 45.3419 104.299 45.0028C104.136 44.6638 104.055 44.2756 104.055 43.8381C104.055 43.3949 104.138 43.0038 104.305 42.6648C104.471 42.3239 104.706 42.0578 105.009 41.8665C105.312 41.6752 105.669 41.5795 106.08 41.5795C106.412 41.5795 106.707 41.6411 106.967 41.7642C107.226 41.8854 107.435 42.0559 107.594 42.2756C107.755 42.4953 107.851 42.7519 107.881 43.0455H107.055C107.009 42.8409 106.905 42.6648 106.742 42.517C106.581 42.3693 106.365 42.2955 106.094 42.2955C105.858 42.2955 105.65 42.358 105.472 42.483C105.296 42.6061 105.159 42.7822 105.06 43.0114C104.962 43.2386 104.913 43.5076 104.913 43.8182C104.913 44.1364 104.961 44.411 105.058 44.642C105.154 44.8731 105.29 45.0521 105.467 45.179C105.645 45.3059 105.854 45.3693 106.094 45.3693C106.255 45.3693 106.401 45.34 106.532 45.2812C106.665 45.2206 106.775 45.1345 106.864 45.0227C106.955 44.911 107.019 44.7765 107.055 44.6193H107.881C107.851 44.9015 107.759 45.1534 107.606 45.375C107.452 45.5966 107.247 45.7708 106.989 45.8977C106.734 46.0246 106.433 46.0881 106.089 46.0881ZM110.628 46.0881C110.219 46.0881 109.862 45.9943 109.557 45.8068C109.252 45.6193 109.015 45.357 108.847 45.0199C108.678 44.6828 108.594 44.2888 108.594 43.8381C108.594 43.3854 108.678 42.9896 108.847 42.6506C109.015 42.3116 109.252 42.0483 109.557 41.8608C109.862 41.6733 110.219 41.5795 110.628 41.5795C111.037 41.5795 111.394 41.6733 111.699 41.8608C112.004 42.0483 112.241 42.3116 112.409 42.6506C112.578 42.9896 112.662 43.3854 112.662 43.8381C112.662 44.2888 112.578 44.6828 112.409 45.0199C112.241 45.357 112.004 45.6193 111.699 45.8068C111.394 45.9943 111.037 46.0881 110.628 46.0881ZM110.631 45.375C110.896 45.375 111.116 45.3049 111.29 45.1648C111.464 45.0246 111.593 44.8381 111.676 44.6051C111.761 44.3722 111.804 44.1155 111.804 43.8352C111.804 43.5568 111.761 43.3011 111.676 43.0682C111.593 42.8333 111.464 42.6449 111.29 42.5028C111.116 42.3608 110.896 42.2898 110.631 42.2898C110.364 42.2898 110.142 42.3608 109.966 42.5028C109.792 42.6449 109.662 42.8333 109.577 43.0682C109.493 43.3011 109.452 43.5568 109.452 43.8352C109.452 44.1155 109.493 44.3722 109.577 44.6051C109.662 44.8381 109.792 45.0246 109.966 45.1648C110.142 45.3049 110.364 45.375 110.631 45.375ZM113.61 46V41.6364H114.431V42.3295H114.477C114.556 42.0947 114.696 41.91 114.897 41.7756C115.1 41.6392 115.329 41.571 115.585 41.571C115.638 41.571 115.7 41.5729 115.772 41.5767C115.846 41.5805 115.904 41.5852 115.945 41.5909V42.4034C115.911 42.3939 115.851 42.3835 115.763 42.3722C115.676 42.3589 115.589 42.3523 115.502 42.3523C115.301 42.3523 115.122 42.3949 114.965 42.4801C114.81 42.5634 114.687 42.6799 114.596 42.8295C114.505 42.9773 114.46 43.1458 114.46 43.3352V46H113.61ZM118.158 46.0852C117.805 46.0852 117.491 45.9953 117.214 45.8153C116.94 45.6335 116.724 45.375 116.567 45.0398C116.411 44.7027 116.334 44.2983 116.334 43.8267C116.334 43.3551 116.412 42.9517 116.57 42.6165C116.729 42.2812 116.946 42.0246 117.223 41.8466C117.5 41.6686 117.813 41.5795 118.163 41.5795C118.434 41.5795 118.652 41.625 118.817 41.7159C118.983 41.8049 119.112 41.9091 119.203 42.0284C119.296 42.1477 119.368 42.2528 119.419 42.3438H119.47V40.1818H120.32V46H119.49V45.321H119.419C119.368 45.4138 119.294 45.5199 119.197 45.6392C119.103 45.7585 118.972 45.8627 118.805 45.9517C118.639 46.0407 118.423 46.0852 118.158 46.0852ZM118.345 45.3608C118.589 45.3608 118.796 45.2964 118.964 45.1676C119.135 45.0369 119.264 44.8561 119.351 44.625C119.44 44.3939 119.484 44.125 119.484 43.8182C119.484 43.5152 119.441 43.25 119.354 43.0227C119.267 42.7955 119.139 42.6184 118.97 42.4915C118.802 42.3646 118.593 42.3011 118.345 42.3011C118.089 42.3011 117.876 42.3674 117.706 42.5C117.536 42.6326 117.407 42.8134 117.32 43.0426C117.234 43.2718 117.192 43.5303 117.192 43.8182C117.192 44.1098 117.235 44.3722 117.322 44.6051C117.41 44.8381 117.538 45.0227 117.709 45.1591C117.881 45.2936 118.093 45.3608 118.345 45.3608ZM124.802 42.7017L124.032 42.8381C124 42.7396 123.949 42.6458 123.879 42.5568C123.81 42.4678 123.718 42.3949 123.6 42.3381C123.483 42.2812 123.336 42.2528 123.16 42.2528C122.919 42.2528 122.719 42.3068 122.558 42.4148C122.397 42.5208 122.316 42.6581 122.316 42.8267C122.316 42.9725 122.37 43.09 122.478 43.179C122.586 43.268 122.76 43.3409 123.001 43.3977L123.694 43.5568C124.095 43.6496 124.395 43.7926 124.592 43.9858C124.789 44.179 124.887 44.4299 124.887 44.7386C124.887 45 124.811 45.233 124.66 45.4375C124.51 45.6402 124.301 45.7992 124.032 45.9148C123.765 46.0303 123.455 46.0881 123.103 46.0881C122.614 46.0881 122.216 45.9839 121.907 45.7756C121.598 45.5653 121.409 45.267 121.339 44.8807L122.16 44.7557C122.211 44.9697 122.316 45.1316 122.475 45.2415C122.634 45.3494 122.842 45.4034 123.097 45.4034C123.376 45.4034 123.598 45.3456 123.765 45.2301C123.932 45.1127 124.015 44.9697 124.015 44.8011C124.015 44.6648 123.964 44.5502 123.862 44.4574C123.761 44.3646 123.607 44.2945 123.398 44.2472L122.66 44.0852C122.253 43.9924 121.951 43.8447 121.756 43.642C121.563 43.4394 121.467 43.1828 121.467 42.8722C121.467 42.6146 121.539 42.3892 121.683 42.196C121.826 42.0028 122.025 41.8523 122.279 41.7443C122.533 41.6345 122.824 41.5795 123.151 41.5795C123.623 41.5795 123.994 41.6818 124.265 41.8864C124.536 42.089 124.715 42.3608 124.802 42.7017ZM129.208 46.0966C128.932 46.0966 128.682 46.0455 128.458 45.9432C128.235 45.839 128.058 45.6884 127.927 45.4915C127.798 45.2945 127.734 45.053 127.734 44.767C127.734 44.5208 127.781 44.3182 127.876 44.1591C127.97 44 128.098 43.8741 128.259 43.7812C128.42 43.6884 128.6 43.6184 128.799 43.571C128.998 43.5237 129.201 43.4877 129.407 43.4631C129.668 43.4328 129.88 43.4081 130.043 43.3892C130.206 43.3684 130.325 43.3352 130.398 43.2898C130.472 43.2443 130.509 43.1705 130.509 43.0682V43.0483C130.509 42.8002 130.439 42.608 130.299 42.4716C130.161 42.3352 129.954 42.267 129.68 42.267C129.394 42.267 129.168 42.3305 129.004 42.4574C128.841 42.5824 128.728 42.7216 128.665 42.875L127.867 42.6932C127.962 42.428 128.1 42.214 128.282 42.0511C128.466 41.8864 128.677 41.767 128.915 41.6932C129.154 41.6174 129.405 41.5795 129.668 41.5795C129.843 41.5795 130.027 41.6004 130.222 41.642C130.419 41.6818 130.603 41.7557 130.773 41.8636C130.946 41.9716 131.087 42.1259 131.197 42.3267C131.307 42.5256 131.362 42.7841 131.362 43.1023V46H130.532V45.4034H130.498C130.443 45.5133 130.361 45.6212 130.251 45.7273C130.141 45.8333 130 45.9214 129.827 45.9915C129.655 46.0616 129.449 46.0966 129.208 46.0966ZM129.393 45.4148C129.628 45.4148 129.828 45.3684 129.995 45.2756C130.164 45.1828 130.291 45.0616 130.379 44.9119C130.468 44.7604 130.512 44.5985 130.512 44.4261V43.8636C130.482 43.8939 130.423 43.9223 130.336 43.9489C130.251 43.9735 130.153 43.9953 130.043 44.0142C129.933 44.0312 129.826 44.0473 129.722 44.0625C129.618 44.0758 129.531 44.0871 129.461 44.0966C129.296 44.1174 129.146 44.1525 129.009 44.2017C128.875 44.2509 128.767 44.322 128.685 44.4148C128.606 44.5057 128.566 44.6269 128.566 44.7784C128.566 44.9886 128.644 45.1477 128.799 45.2557C128.954 45.3617 129.152 45.4148 129.393 45.4148ZM133.342 43.4091V46H132.493V41.6364H133.308V42.3466H133.362C133.463 42.1155 133.62 41.9299 133.834 41.7898C134.05 41.6496 134.321 41.5795 134.649 41.5795C134.946 41.5795 135.207 41.642 135.43 41.767C135.654 41.8902 135.827 42.0739 135.95 42.3182C136.073 42.5625 136.135 42.8646 136.135 43.2244V46H135.286V43.3267C135.286 43.0104 135.203 42.7633 135.038 42.5852C134.874 42.4053 134.647 42.3153 134.359 42.3153C134.162 42.3153 133.987 42.358 133.834 42.4432C133.682 42.5284 133.562 42.6534 133.473 42.8182C133.386 42.9811 133.342 43.178 133.342 43.4091ZM138.908 46.0852C138.555 46.0852 138.241 45.9953 137.964 45.8153C137.69 45.6335 137.474 45.375 137.317 45.0398C137.161 44.7027 137.084 44.2983 137.084 43.8267C137.084 43.3551 137.162 42.9517 137.32 42.6165C137.479 42.2812 137.696 42.0246 137.973 41.8466C138.25 41.6686 138.563 41.5795 138.913 41.5795C139.184 41.5795 139.402 41.625 139.567 41.7159C139.733 41.8049 139.862 41.9091 139.953 42.0284C140.046 42.1477 140.118 42.2528 140.169 42.3438H140.22V40.1818H141.07V46H140.24V45.321H140.169C140.118 45.4138 140.044 45.5199 139.947 45.6392C139.853 45.7585 139.722 45.8627 139.555 45.9517C139.389 46.0407 139.173 46.0852 138.908 46.0852ZM139.095 45.3608C139.339 45.3608 139.546 45.2964 139.714 45.1676C139.885 45.0369 140.014 44.8561 140.101 44.625C140.19 44.3939 140.234 44.125 140.234 43.8182C140.234 43.5152 140.191 43.25 140.104 43.0227C140.017 42.7955 139.889 42.6184 139.72 42.4915C139.552 42.3646 139.343 42.3011 139.095 42.3011C138.839 42.3011 138.626 42.3674 138.456 42.5C138.286 42.6326 138.157 42.8134 138.07 43.0426C137.984 43.2718 137.942 43.5303 137.942 43.8182C137.942 44.1098 137.985 44.3722 138.072 44.6051C138.16 44.8381 138.288 45.0227 138.459 45.1591C138.631 45.2936 138.843 45.3608 139.095 45.3608ZM144.959 46H144.027L146.121 40.1818H147.135L149.229 46H148.297L146.652 41.2386H146.607L144.959 46ZM145.115 43.7216H148.138V44.4602H145.115V43.7216ZM150.85 43.4091V46H150.001V41.6364H150.816V42.3466H150.87C150.97 42.1155 151.128 41.9299 151.342 41.7898C151.558 41.6496 151.829 41.5795 152.157 41.5795C152.454 41.5795 152.715 41.642 152.938 41.767C153.162 41.8902 153.335 42.0739 153.458 42.3182C153.581 42.5625 153.643 42.8646 153.643 43.2244V46H152.793V43.3267C152.793 43.0104 152.711 42.7633 152.546 42.5852C152.381 42.4053 152.155 42.3153 151.867 42.3153C151.67 42.3153 151.495 42.358 151.342 42.4432C151.19 42.5284 151.07 42.6534 150.981 42.8182C150.894 42.9811 150.85 43.178 150.85 43.4091ZM156.052 46.0966C155.775 46.0966 155.525 46.0455 155.302 45.9432C155.078 45.839 154.901 45.6884 154.771 45.4915C154.642 45.2945 154.577 45.053 154.577 44.767C154.577 44.5208 154.625 44.3182 154.719 44.1591C154.814 44 154.942 43.8741 155.103 43.7812C155.264 43.6884 155.444 43.6184 155.643 43.571C155.842 43.5237 156.044 43.4877 156.251 43.4631C156.512 43.4328 156.724 43.4081 156.887 43.3892C157.05 43.3684 157.168 43.3352 157.242 43.2898C157.316 43.2443 157.353 43.1705 157.353 43.0682V43.0483C157.353 42.8002 157.283 42.608 157.143 42.4716C157.004 42.3352 156.798 42.267 156.523 42.267C156.237 42.267 156.012 42.3305 155.847 42.4574C155.684 42.5824 155.572 42.7216 155.509 42.875L154.711 42.6932C154.806 42.428 154.944 42.214 155.126 42.0511C155.309 41.8864 155.521 41.767 155.759 41.6932C155.998 41.6174 156.249 41.5795 156.512 41.5795C156.686 41.5795 156.871 41.6004 157.066 41.642C157.263 41.6818 157.447 41.7557 157.617 41.8636C157.79 41.9716 157.931 42.1259 158.04 42.3267C158.15 42.5256 158.205 42.7841 158.205 43.1023V46H157.376V45.4034H157.342C157.287 45.5133 157.204 45.6212 157.094 45.7273C156.985 45.8333 156.844 45.9214 156.671 45.9915C156.499 46.0616 156.292 46.0966 156.052 46.0966ZM156.237 45.4148C156.471 45.4148 156.672 45.3684 156.839 45.2756C157.007 45.1828 157.135 45.0616 157.222 44.9119C157.311 44.7604 157.356 44.5985 157.356 44.4261V43.8636C157.326 43.8939 157.267 43.9223 157.18 43.9489C157.094 43.9735 156.997 43.9953 156.887 44.0142C156.777 44.0312 156.67 44.0473 156.566 44.0625C156.462 44.0758 156.375 44.0871 156.305 44.0966C156.14 44.1174 155.989 44.1525 155.853 44.2017C155.719 44.2509 155.611 44.322 155.529 44.4148C155.45 44.5057 155.41 44.6269 155.41 44.7784C155.41 44.9886 155.487 45.1477 155.643 45.2557C155.798 45.3617 155.996 45.4148 156.237 45.4148ZM160.186 40.1818V46H159.337V40.1818H160.186ZM161.866 47.6364C161.739 47.6364 161.623 47.6259 161.519 47.6051C161.415 47.5862 161.337 47.5653 161.286 47.5426L161.491 46.8466C161.646 46.8883 161.784 46.9063 161.906 46.9006C162.027 46.8949 162.134 46.8494 162.227 46.7642C162.321 46.679 162.405 46.5398 162.477 46.3466L162.582 46.0568L160.985 41.6364H161.894L162.999 45.0227H163.045L164.15 41.6364H165.062L163.263 46.5824C163.18 46.8097 163.074 47.0019 162.945 47.1591C162.817 47.3182 162.663 47.4375 162.485 47.517C162.307 47.5966 162.101 47.6364 161.866 47.6364ZM167.897 41.6364V42.3182H165.513V41.6364H167.897ZM166.153 40.5909H167.002V44.7188C167.002 44.8835 167.027 45.0076 167.076 45.0909C167.125 45.1723 167.189 45.2282 167.266 45.2585C167.346 45.2869 167.432 45.3011 167.525 45.3011C167.593 45.3011 167.653 45.2964 167.704 45.2869C167.755 45.2775 167.795 45.2699 167.823 45.2642L167.977 45.9659C167.927 45.9848 167.857 46.0038 167.766 46.0227C167.675 46.0436 167.562 46.0549 167.425 46.0568C167.202 46.0606 166.994 46.0208 166.8 45.9375C166.607 45.8542 166.451 45.7254 166.332 45.5511C166.212 45.3769 166.153 45.1581 166.153 44.8949V40.5909ZM168.837 46V41.6364H169.686V46H168.837ZM169.266 40.9631C169.118 40.9631 168.991 40.9138 168.885 40.8153C168.781 40.715 168.729 40.5956 168.729 40.4574C168.729 40.3172 168.781 40.1979 168.885 40.0994C168.991 39.9991 169.118 39.9489 169.266 39.9489C169.413 39.9489 169.539 39.9991 169.643 40.0994C169.75 40.1979 169.803 40.3172 169.803 40.4574C169.803 40.5956 169.75 40.715 169.643 40.8153C169.539 40.9138 169.413 40.9631 169.266 40.9631ZM172.667 46.0881C172.245 46.0881 171.881 45.9924 171.576 45.8011C171.273 45.608 171.04 45.3419 170.877 45.0028C170.714 44.6638 170.633 44.2756 170.633 43.8381C170.633 43.3949 170.716 43.0038 170.883 42.6648C171.049 42.3239 171.284 42.0578 171.587 41.8665C171.89 41.6752 172.247 41.5795 172.658 41.5795C172.99 41.5795 173.285 41.6411 173.545 41.7642C173.804 41.8854 174.013 42.0559 174.173 42.2756C174.334 42.4953 174.429 42.7519 174.46 43.0455H173.633C173.587 42.8409 173.483 42.6648 173.32 42.517C173.159 42.3693 172.943 42.2955 172.673 42.2955C172.436 42.2955 172.228 42.358 172.05 42.483C171.874 42.6061 171.737 42.7822 171.638 43.0114C171.54 43.2386 171.491 43.5076 171.491 43.8182C171.491 44.1364 171.539 44.411 171.636 44.642C171.732 44.8731 171.869 45.0521 172.045 45.179C172.223 45.3059 172.432 45.3693 172.673 45.3693C172.834 45.3693 172.979 45.34 173.11 45.2812C173.243 45.2206 173.353 45.1345 173.442 45.0227C173.533 44.911 173.597 44.7765 173.633 44.6193H174.46C174.429 44.9015 174.337 45.1534 174.184 45.375C174.031 45.5966 173.825 45.7708 173.567 45.8977C173.312 46.0246 173.012 46.0881 172.667 46.0881ZM178.638 42.7017L177.868 42.8381C177.836 42.7396 177.785 42.6458 177.714 42.5568C177.646 42.4678 177.554 42.3949 177.436 42.3381C177.319 42.2812 177.172 42.2528 176.996 42.2528C176.755 42.2528 176.554 42.3068 176.393 42.4148C176.232 42.5208 176.152 42.6581 176.152 42.8267C176.152 42.9725 176.206 43.09 176.314 43.179C176.422 43.268 176.596 43.3409 176.837 43.3977L177.53 43.5568C177.931 43.6496 178.231 43.7926 178.428 43.9858C178.625 44.179 178.723 44.4299 178.723 44.7386C178.723 45 178.647 45.233 178.496 45.4375C178.346 45.6402 178.137 45.7992 177.868 45.9148C177.601 46.0303 177.291 46.0881 176.939 46.0881C176.45 46.0881 176.052 45.9839 175.743 45.7756C175.434 45.5653 175.245 45.267 175.175 44.8807L175.996 44.7557C176.047 44.9697 176.152 45.1316 176.311 45.2415C176.47 45.3494 176.678 45.4034 176.933 45.4034C177.212 45.4034 177.434 45.3456 177.601 45.2301C177.768 45.1127 177.851 44.9697 177.851 44.8011C177.851 44.6648 177.8 44.5502 177.697 44.4574C177.597 44.3646 177.443 44.2945 177.234 44.2472L176.496 44.0852C176.089 43.9924 175.787 43.8447 175.592 43.642C175.399 43.4394 175.303 43.1828 175.303 42.8722C175.303 42.6146 175.375 42.3892 175.518 42.196C175.662 42.0028 175.861 41.8523 176.115 41.7443C176.369 41.6345 176.66 41.5795 176.987 41.5795C177.459 41.5795 177.83 41.6818 178.101 41.8864C178.372 42.089 178.551 42.3608 178.638 42.7017Z" fill="white" style="fill:white;fill-opacity:1;"/>
</svg>
