<svg width="28" height="29" viewBox="0 0 28 29" fill="none" xmlns="http://www.w3.org/2000/svg">
<path d="M9.334 18C9.06881 18 8.81157 17.9094 8.60483 17.7433L4.52267 14.479C3.83811 13.9339 3.28566 13.2411 2.90665 12.4523C2.52764 11.6636 2.33187 10.7994 2.334 9.92431V3.99998C2.334 3.69056 2.45692 3.39381 2.67571 3.17502C2.8945 2.95623 3.19125 2.83331 3.50067 2.83331H5.834C6.14342 2.83331 6.44017 2.95623 6.65896 3.17502C6.87775 3.39381 7.00067 3.69056 7.00067 3.99998C7.00067 4.3094 6.87775 4.60615 6.65896 4.82494C6.44017 5.04373 6.14342 5.16665 5.834 5.16665H4.66733V9.92431C4.66618 10.4493 4.78375 10.9678 5.01124 11.4409C5.23872 11.9141 5.57024 12.3297 5.981 12.6566L9.334 15.34L12.6882 12.6566C13.0986 12.3295 13.4299 11.9139 13.6572 11.4407C13.8845 10.9676 14.0019 10.4492 14.0007 9.92431V5.16665H12.834C12.5246 5.16665 12.2278 5.04373 12.009 4.82494C11.7903 4.60615 11.6673 4.3094 11.6673 3.99998C11.6673 3.69056 11.7903 3.39381 12.009 3.17502C12.2278 2.95623 12.5246 2.83331 12.834 2.83331H15.1673C15.4768 2.83331 15.7735 2.95623 15.9923 3.17502C16.2111 3.39381 16.334 3.69056 16.334 3.99998V9.92431C16.336 10.7994 16.1402 11.6636 15.7612 12.4523C15.3822 13.241 14.8298 13.9338 14.1453 14.479L10.062 17.7445C9.85542 17.9099 9.59865 18 9.334 18ZM22.1673 16.8333C21.4751 16.8333 20.7984 16.628 20.2228 16.2435C19.6473 15.8589 19.1987 15.3122 18.9338 14.6727C18.6688 14.0332 18.5995 13.3294 18.7346 12.6505C18.8696 11.9716 19.203 11.3479 19.6925 10.8584C20.1819 10.369 20.8056 10.0356 21.4845 9.90056C22.1635 9.76552 22.8672 9.83483 23.5067 10.0997C24.1463 10.3646 24.6929 10.8132 25.0775 11.3888C25.4621 11.9644 25.6673 12.6411 25.6673 13.3333C25.6664 14.2613 25.2974 15.151 24.6412 15.8072C23.985 16.4633 23.0953 16.8324 22.1673 16.8333Z" fill="#FFBA94" style="fill:#FFBA94;fill:color(display-p3 1.0000 0.7275 0.5792);fill-opacity:1;"/>
<path d="M22.166 16.8333C21.7677 16.8295 21.373 16.7569 20.9993 16.6187V18.5833C20.9993 19.9757 20.4462 21.3111 19.4617 22.2956C18.4771 23.2802 17.1417 23.8333 15.7493 23.8333C14.357 23.8333 13.0216 23.2802 12.037 22.2956C11.0525 21.3111 10.4993 19.9757 10.4993 18.5833V17.3933L10.0618 17.7433C9.85493 17.909 9.59776 17.9993 9.33268 17.9993C9.06761 17.9993 8.81044 17.909 8.60352 17.7433L8.16602 17.3933V18.5833C8.16602 20.5945 8.96497 22.5234 10.3871 23.9455C11.8093 25.3677 13.7381 26.1667 15.7493 26.1667C17.7606 26.1667 19.6894 25.3677 21.1116 23.9455C22.5337 22.5234 23.3327 20.5945 23.3327 18.5833V16.6187C22.9591 16.7569 22.5644 16.8295 22.166 16.8333Z" fill="#FE8947" style="fill:#FE8947;fill:color(display-p3 0.9961 0.5373 0.2784);fill-opacity:1;"/>
</svg>
