<svg width="32" height="32" viewBox="0 0 32 32" fill="none" xmlns="http://www.w3.org/2000/svg">
<g clip-path="url(#clip0_331_1461)">
<path d="M16 7.33333C14.568 6.55199 12.556 5.33333 10.6667 5.33333C7.86668 5.33333 5.33334 6.99599 5.33334 12C5.33334 18.532 6.74134 23.2133 8.89468 26.0493C9.65868 27.0573 11.5213 26.744 12.3173 25.7347C12.848 25.0613 13.4093 23.816 14 22C14.3893 20.972 15.1893 19.9947 16 20C16.8027 20 17.6133 20.9827 18 22C18.5907 23.816 19.152 25.06 19.6827 25.7333C20.4787 26.7453 22.3493 27.0573 23.1053 26.0493C25.2587 23.2133 26.6667 18.5333 26.6667 12C26.6667 7.01333 24.1227 5.33333 21.3333 5.33333C19.436 5.33333 17.44 6.54799 16 7.33333Z" stroke="white" style="stroke:white;stroke-opacity:1;" stroke-width="2" stroke-linecap="round" stroke-linejoin="round"/>
<path d="M16 7.33333L20 9.33333" stroke="white" style="stroke:white;stroke-opacity:1;" stroke-width="2" stroke-linecap="round" stroke-linejoin="round"/>
</g>
<defs>
<clipPath id="clip0_331_1461">
<rect width="32" height="32" fill="white" style="fill:white;fill-opacity:1;"/>
</clipPath>
</defs>
</svg>
