<svg width="32" height="32" viewBox="0 0 32 32" fill="none" xmlns="http://www.w3.org/2000/svg">
<g clip-path="url(#clip0_331_1456)">
<path d="M12 6.66666H9.33332C8.62608 6.66666 7.9478 6.94762 7.4477 7.44771C6.94761 7.94781 6.66666 8.62609 6.66666 9.33333V25.3333C6.66666 26.0406 6.94761 26.7189 7.4477 27.2189C7.9478 27.719 8.62608 28 9.33332 28H22.6667C23.3739 28 24.0522 27.719 24.5523 27.2189C25.0524 26.7189 25.3333 26.0406 25.3333 25.3333V9.33333C25.3333 8.62609 25.0524 7.94781 24.5523 7.44771C24.0522 6.94762 23.3739 6.66666 22.6667 6.66666H20" stroke="white" style="stroke:white;stroke-opacity:1;" stroke-width="2" stroke-linecap="round" stroke-linejoin="round"/>
<path d="M12 6.66667C12 5.95942 12.281 5.28115 12.781 4.78105C13.2811 4.28095 13.9594 4 14.6667 4H17.3333C18.0406 4 18.7189 4.28095 19.219 4.78105C19.719 5.28115 20 5.95942 20 6.66667C20 7.37391 19.719 8.05219 19.219 8.55229C18.7189 9.05238 18.0406 9.33333 17.3333 9.33333H14.6667C13.9594 9.33333 13.2811 9.05238 12.781 8.55229C12.281 8.05219 12 7.37391 12 6.66667Z" stroke="white" style="stroke:white;stroke-opacity:1;" stroke-width="2" stroke-linecap="round" stroke-linejoin="round"/>
<path d="M15.9907 22.3333L19.6533 18.58C20.1064 18.1082 20.3594 17.4794 20.3594 16.8253C20.3594 16.1712 20.1064 15.5425 19.6533 15.0707C19.4325 14.8408 19.1675 14.6579 18.8742 14.533C18.5809 14.408 18.2654 14.3436 17.9467 14.3436C17.6279 14.3436 17.3124 14.408 17.0191 14.533C16.7258 14.6579 16.4608 14.8408 16.24 15.0707L15.996 15.3213L15.752 15.0693C15.5311 14.8395 15.2661 14.6566 14.9729 14.5316C14.6796 14.4067 14.3641 14.3423 14.0453 14.3423C13.7266 14.3423 13.4111 14.4067 13.1178 14.5316C12.8245 14.6566 12.5595 14.8395 12.3387 15.0693C11.8853 15.541 11.6321 16.1698 11.6321 16.824C11.6321 17.4782 11.8853 18.107 12.3387 18.5787L15.9893 22.3453L15.9907 22.3333Z" stroke="white" style="stroke:white;stroke-opacity:1;" stroke-width="2" stroke-linecap="round" stroke-linejoin="round"/>
</g>
<defs>
<clipPath id="clip0_331_1456">
<rect width="32" height="32" fill="white" style="fill:white;fill-opacity:1;"/>
</clipPath>
</defs>
</svg>
